<svg width="283" height="205" viewBox="0 0 283 205" fill="none" xmlns="http://www.w3.org/2000/svg">
<g opacity="0.22">
<path d="M60.7603 17.4785C72.7233 9.32113 89.2253 0.980894 109.752 4.12891C130.922 7.37543 155.667 22.7271 183.727 61.2988L184.7 62.6465C205.088 91.109 223.545 130.585 238.722 169.688C254.154 209.45 266.259 248.998 273.596 276.543L273.648 276.76C274.124 278.983 272.708 280.699 271.134 281.287C269.523 281.889 267.268 281.498 266.164 279.406V279.405C252.441 253.404 231.462 218.774 207.967 189.969C196.219 175.565 183.894 162.684 171.585 153.07C159.633 143.734 147.882 137.626 136.83 136.024L135.762 135.884C123.126 134.38 114.484 136.138 108.68 139.624C102.932 143.076 99.6308 148.427 98.0581 154.859C94.9588 167.537 98.7176 183.925 103.496 195.72L103.961 196.847L103.998 196.933L104.027 197.021C109.136 212.171 123.075 234.18 138.934 258.807C154.19 282.498 171.088 308.421 182.841 332.223L183.962 334.52L183.972 334.54L183.982 334.562C190.301 348.31 193.955 357.344 195.289 362.785C195.627 364.164 195.84 365.404 195.89 366.486C195.938 367.531 195.849 368.667 195.364 369.675C194.812 370.822 193.833 371.614 192.594 371.896C191.647 372.112 190.704 371.996 189.892 371.788L189.552 371.694C188.014 371.238 184.219 369.683 179.533 367.747C174.749 365.771 168.838 363.311 162.866 360.937C156.887 358.559 150.893 356.285 145.949 354.674C143.474 353.867 141.306 353.241 139.558 352.851C137.71 352.438 136.646 352.364 136.212 352.426L136.213 352.427C135.777 352.489 135.373 352.49 134.959 352.444L134.951 352.443C134.393 352.38 132.98 352.579 130.663 354.129C128.405 355.638 125.534 358.271 122.163 362.539C115.426 371.069 106.909 385.854 97.4224 410.353L91.1821 428.628L91.1812 428.63C90.6297 430.241 89.1155 431.325 87.4097 431.325H14.8833C12.6824 431.325 10.897 429.542 10.897 427.34V426.151C8.18959 400.933 6.93214 339.288 23.7192 293.413L24.062 292.465C31.217 272.395 36.0871 242.379 38.0845 213.287C40.0854 184.143 39.1686 156.409 35.0063 140.835L34.8062 140.103C30.3054 124.079 28.2459 111.051 27.5103 101.241C26.7923 91.6677 27.3269 85.0203 28.1626 81.6309C29.3097 72.9289 32.6137 60.3682 37.8228 48.4238C43.0289 36.4861 50.3149 24.7508 59.6167 18.2676L60.7603 17.4785Z" fill="white" stroke="white" stroke-width="5.10236"/>
<path d="M44.9561 76.0393C43.7653 81.3134 41.7957 89.1636 39.7549 95.5579C38.7411 98.7343 37.6748 101.664 36.6406 103.753C36.138 104.768 35.5523 105.774 34.8711 106.507C34.3489 107.069 32.8518 108.401 30.9355 107.634L30.749 107.553C30.4006 107.391 29.2821 107.097 27.3145 106.757C25.4707 106.439 23.17 106.125 20.707 105.831C15.7863 105.244 10.3256 104.751 6.80273 104.478L3.82227 104.246L4.51953 101.339L4.5957 101.038C5.4307 97.9331 7.61333 94.9966 10.2432 92.3645C13.0032 89.6021 16.5 86.9355 20.1846 84.4973C27.5569 79.6189 35.961 75.4711 41.4697 73.1301L46.0527 71.1819L44.9561 76.0393Z" fill="white" stroke="white" stroke-width="5.10236"/>
<path d="M84.811 45.3794C91.4548 45.3794 96.4819 51.1693 96.4819 57.8511C96.4819 64.5329 91.4548 70.3237 84.811 70.3237C78.1673 70.3237 73.1401 64.5328 73.1401 57.8511C73.1402 51.1693 78.1673 45.3794 84.811 45.3794Z" fill="white" stroke="white" stroke-width="5.10236"/>
<path d="M84.811 53.0515C91.4548 53.0515 96.4819 58.8414 96.4819 65.5232C96.4819 72.205 91.4548 77.9958 84.811 77.9958C78.1673 77.9958 73.1401 72.205 73.1401 65.5232C73.1402 58.8414 78.1673 53.0515 84.811 53.0515Z" fill="white" stroke="white" stroke-width="5.10236"/>
</g>
</svg>
