<svg width="283" height="205" viewBox="0 0 283 205" fill="none" xmlns="http://www.w3.org/2000/svg">
<g opacity="0.22">
<path d="M222.665 17.4785C210.702 9.32113 194.2 0.980894 173.673 4.12891C152.503 7.37543 127.759 22.7271 99.6982 61.2988L98.7256 62.6465C78.3368 91.109 59.8798 130.585 44.7031 169.688C29.2712 209.45 17.1661 248.998 9.8291 276.543L9.77734 276.76C9.30093 278.983 10.7169 280.699 12.291 281.287C13.9022 281.889 16.1571 281.498 17.2617 279.406V279.405C30.9844 253.404 51.9629 218.774 75.458 189.969C87.2064 175.565 99.5318 162.684 111.84 153.07C123.792 143.734 135.543 137.626 146.596 136.024L147.663 135.884C160.299 134.38 168.941 136.138 174.745 139.624C180.494 143.076 183.794 148.427 185.367 154.859C188.466 167.537 184.708 183.925 179.93 195.72L179.464 196.847L179.428 196.933L179.398 197.021C174.289 212.171 160.35 234.18 144.491 258.807C129.235 282.498 112.337 308.421 100.584 332.223L99.4629 334.52L99.4531 334.54L99.4434 334.562C93.1244 348.31 89.4706 357.344 88.1367 362.785C87.7987 364.164 87.5852 365.404 87.5352 366.486C87.4869 367.531 87.5766 368.667 88.0615 369.675C88.6135 370.822 89.5921 371.614 90.8311 371.896C91.7778 372.112 92.721 371.996 93.5332 371.788L93.873 371.694C95.411 371.238 99.2063 369.683 103.893 367.747C108.676 365.771 114.587 363.311 120.56 360.937C126.538 358.559 132.532 356.285 137.477 354.674C139.952 353.867 142.12 353.241 143.867 352.851C145.715 352.438 146.779 352.364 147.213 352.426L147.212 352.427C147.648 352.489 148.052 352.49 148.466 352.444L148.475 352.443C149.032 352.38 150.445 352.579 152.763 354.129C155.02 355.638 157.892 358.271 161.263 362.539C167.999 371.069 176.516 385.854 186.003 410.353L192.243 428.628L192.244 428.63C192.796 430.241 194.31 431.325 196.016 431.325H268.542C270.743 431.325 272.528 429.542 272.528 427.34V426.151C275.236 400.933 276.493 339.288 259.706 293.413L259.363 292.465C252.208 272.395 247.338 242.379 245.341 213.287C243.34 184.143 244.257 156.409 248.419 140.835L248.619 140.103C253.12 124.079 255.179 111.051 255.915 101.241C256.633 91.6677 256.098 85.0203 255.263 81.6309C254.116 72.9289 250.812 60.3682 245.603 48.4238C240.396 36.4861 233.11 24.7508 223.809 18.2676L222.665 17.4785Z" fill="white" stroke="white" stroke-width="5.10236"/>
<path d="M238.469 76.0393C239.66 81.3134 241.63 89.1636 243.67 95.5579C244.684 98.7343 245.75 101.664 246.785 103.753C247.287 104.768 247.873 105.774 248.554 106.507C249.076 107.069 250.573 108.401 252.49 107.634L252.676 107.553C253.025 107.391 254.143 107.097 256.111 106.757C257.955 106.439 260.255 106.125 262.718 105.831C267.639 105.244 273.1 104.751 276.623 104.478L279.603 104.246L278.906 101.339L278.83 101.038C277.995 97.9331 275.812 94.9966 273.182 92.3645C270.422 89.6021 266.925 86.9355 263.241 84.4973C255.868 79.6189 247.464 75.4711 241.956 73.1301L237.373 71.1819L238.469 76.0393Z" fill="white" stroke="white" stroke-width="5.10236"/>
<path d="M198.614 45.3794C191.97 45.3794 186.943 51.1693 186.943 57.8511C186.943 64.5329 191.97 70.3237 198.614 70.3237C205.258 70.3237 210.285 64.5328 210.285 57.8511C210.285 51.1693 205.258 45.3794 198.614 45.3794Z" fill="white" stroke="white" stroke-width="5.10236"/>
<path d="M198.614 53.0515C191.97 53.0515 186.943 58.8414 186.943 65.5232C186.943 72.205 191.97 77.9958 198.614 77.9958C205.258 77.9958 210.285 72.205 210.285 65.5232C210.285 58.8414 205.258 53.0515 198.614 53.0515Z" fill="white" stroke="white" stroke-width="5.10236"/>
</g>
</svg>
