<svg width="24" height="25" viewBox="0 0 24 25" fill="none" xmlns="http://www.w3.org/2000/svg">
<path d="M22 16.6295C22 20.2695 19.83 22.4395 16.19 22.4395H15C14.45 22.4395 14 21.9895 14 21.4395V15.6695C14 15.3995 14.22 15.1695 14.49 15.1695L16.25 15.1395C16.39 15.1295 16.51 15.0295 16.54 14.8895L16.89 12.9795C16.92 12.7995 16.78 12.6295 16.59 12.6295L14.46 12.6595C14.18 12.6595 13.96 12.4395 13.95 12.1695L13.91 9.71945C13.91 9.55945 14.04 9.41946 14.21 9.41946L16.61 9.37946C16.78 9.37946 16.91 9.24947 16.91 9.07947L16.87 6.67944C16.87 6.50944 16.74 6.37946 16.57 6.37946L13.87 6.41946C12.21 6.44946 10.89 7.80945 10.92 9.46945L10.97 12.2195C10.98 12.4995 10.76 12.7195 10.48 12.7295L9.28 12.7495C9.11 12.7495 8.98001 12.8794 8.98001 13.0494L9.01001 14.9495C9.01001 15.1195 9.14 15.2495 9.31 15.2495L10.51 15.2295C10.79 15.2295 11.01 15.4495 11.02 15.7195L11.11 21.4195C11.12 21.9795 10.67 22.4395 10.11 22.4395H7.81C4.17 22.4395 2 20.2694 2 16.6194V8.24945C2 4.60945 4.17 2.43945 7.81 2.43945H16.19C19.83 2.43945 22 4.60945 22 8.24945V16.6295Z" fill="white"/>
</svg>
