<svg width="113" height="31" viewBox="0 0 113 31" fill="none" xmlns="http://www.w3.org/2000/svg">
<path d="M39.5991 28.1663L39.6011 28.1634H39.7144C39.8395 28.1634 40.2293 28.1519 40.4546 27.8236H40.4556L40.4565 27.8206C40.4575 27.8192 40.4595 27.8182 40.4604 27.8167H40.4595C40.4715 27.7988 40.4795 27.7828 40.48 27.7816C40.4831 27.7744 40.4854 27.7667 40.4878 27.7601C40.4928 27.7466 40.499 27.7297 40.5054 27.7103C40.5183 27.6709 40.5353 27.6155 40.5562 27.5472C40.598 27.4101 40.6558 27.2147 40.7261 26.9749C40.8667 26.4951 41.058 25.8328 41.2729 25.0853C41.5866 23.9945 41.9521 22.7226 42.2837 21.5696V27.3118C42.2839 27.7842 42.6612 28.1663 43.1343 28.1663H43.9233L44.0083 28.1585C44.4255 28.1023 44.7522 27.7456 44.7524 27.3118V18.2581L44.7476 18.1712C44.7038 17.7471 44.3499 17.4206 43.9224 17.4066H42.5366C42.2636 17.4066 41.76 17.5062 41.5298 18.0228L41.4878 18.1321C41.4366 18.2875 40.5885 21.205 39.8813 23.6155C39.1767 21.4898 38.194 18.4676 38.1226 18.2474H38.1216C38.0126 17.9169 37.8355 17.7017 37.6343 17.5716C37.4356 17.4431 37.2263 17.4046 37.063 17.4046H35.5747C35.1006 17.4048 34.7202 17.7848 34.7202 18.2571V27.3109C34.7204 27.7842 35.1001 28.1651 35.5747 28.1654H35.9595L36.0444 28.1585C36.462 28.102 36.7835 27.7434 36.7837 27.3109V21.4017C37.1514 22.5731 37.5581 23.88 37.8999 24.9915C38.1275 25.7316 38.3272 26.3848 38.4702 26.8529C38.5416 27.0867 38.5988 27.2744 38.6382 27.4036C38.6578 27.4679 38.6728 27.5182 38.6831 27.5521L38.6978 27.6009L38.6987 27.6029V27.6038C38.6987 27.6039 38.6997 27.6041 38.8706 27.5521L38.6997 27.6038L38.7036 27.6175C38.877 28.0584 39.248 28.1663 39.5034 28.1663H39.5991Z" fill="#221F1F" stroke="white" stroke-width="0.35732"/>
<path d="M50.7129 28.1646C52.0402 28.1644 53.1172 27.0852 53.1172 25.7623V22.3609C53.117 21.0351 52.0398 19.9607 50.7129 19.9605H47.0273C46.5656 19.977 46.1994 20.3598 46.1992 20.8219V21.1031L46.2041 21.189C46.2464 21.6142 46.5993 21.9336 47.0273 21.9488H50.21C50.4469 21.9488 50.6445 22.1459 50.6445 22.3814V23.0064H48.2988C46.9732 23.0064 45.8958 24.0851 45.8955 25.4078V25.7623C45.8955 27.0852 46.9731 28.1646 48.2988 28.1646H50.7129ZM48.7979 26.1773C48.5614 26.1771 48.3672 25.9821 48.3672 25.7428V25.3678C48.3673 25.1288 48.5594 24.9383 48.7979 24.9381H50.6445V25.7418C50.6445 25.9813 50.4465 26.1773 50.21 26.1773H48.7979Z" fill="#221F1F" stroke="white" stroke-width="0.35732"/>
<path d="M63.1494 28.1646C64.4766 28.1645 65.5557 27.0854 65.5557 25.7623V22.3609L65.543 22.1158C65.4188 20.9051 64.3924 19.9607 63.1484 19.9605H59.4639V19.9615C59.0048 19.978 58.6379 20.3599 58.6377 20.8219V21.1031L58.6416 21.189C58.684 21.6143 59.039 21.9338 59.4648 21.9488H62.6514C62.8865 21.9488 63.0811 22.1442 63.0811 22.3814V23.0064H60.7354C59.4106 23.0064 58.3333 24.0851 58.333 25.4078V25.7623C58.333 27.0852 59.4104 28.1646 60.7354 28.1646H63.1494ZM61.2344 26.1773C60.9972 26.1771 60.8027 25.9813 60.8027 25.7428V25.3678C60.8029 25.1295 60.9952 24.9383 61.2344 24.9381H63.0811V25.7418L63.0723 25.8297C63.0315 26.0291 62.8566 26.1773 62.6514 26.1773H61.2344Z" fill="#221F1F" stroke="white" stroke-width="0.35732"/>
<path d="M80.4048 30.6749C81.7294 30.6749 82.8101 29.5957 82.8101 28.2725V20.8252C82.8101 20.3608 82.4372 19.9878 81.98 19.9717L81.9741 19.9707V19.9717H77.9858C76.6575 19.9717 75.5806 21.0376 75.5806 22.3653V25.6983C75.5806 27.0245 76.6569 28.0967 77.9858 28.0967H80.3374V28.3028C80.3374 28.5436 80.1415 28.7391 79.9038 28.7393H76.7202C76.2618 28.7532 75.8933 29.1262 75.8931 29.5889V29.8223C75.8931 30.2899 76.2618 30.661 76.7202 30.6749H80.4048ZM78.4849 26.1739C78.2488 26.1737 78.0522 25.9774 78.0522 25.7413V22.3819C78.0522 22.1436 78.2491 21.9475 78.4849 21.9473H80.3403V26.1739H78.4849Z" fill="#221F1F" stroke="white" stroke-width="0.35732"/>
<path d="M56.187 28.1663L56.272 28.1585C56.6904 28.1019 57.0139 27.7429 57.0142 27.3118V18.2581C57.0142 17.793 56.6444 17.4227 56.187 17.4066L56.1812 17.4056H55.4009C54.9289 17.4057 54.5444 17.7817 54.5444 18.2581V27.3118C54.5447 27.786 54.928 28.1662 55.4009 28.1663H56.187Z" fill="#221F1F" stroke="white" stroke-width="0.35732"/>
<path d="M73.2256 28.167L73.3096 28.1601C73.728 28.1058 74.0525 27.7473 74.0527 27.3135V22.416L74.04 22.164C73.9135 20.9259 72.8694 19.9609 71.6016 19.9609H70.7295C70.0429 19.961 69.539 20.2027 69.2754 20.3662C69.1299 20.1329 68.8757 19.9738 68.5811 19.9648H68.5762L67.7969 19.9619H67.7959C67.3224 19.9621 66.9414 20.3426 66.9414 20.8174V27.3125C66.9416 27.7864 67.3238 28.1658 67.7959 28.166H68.5811L68.667 28.1592C69.0875 28.1044 69.409 27.7456 69.4092 27.3125V22.331C69.5793 22.2018 69.9916 21.9541 70.707 21.9541C70.9206 21.9541 71.143 22.0402 71.3115 22.1836C71.4793 22.3264 71.5799 22.5136 71.582 22.708V27.3135C71.5823 27.7874 71.965 28.167 72.4365 28.167H73.2256Z" fill="#221F1F" stroke="white" stroke-width="0.35732"/>
<path d="M56.895 14.9342L56.979 14.9263C57.3915 14.868 57.7183 14.5157 57.7183 14.0816V10.4107C57.7795 10.4931 57.8481 10.5851 57.9224 10.6851C58.239 11.1114 58.6627 11.6806 59.0884 12.2535C59.9376 13.3964 60.7997 14.5563 60.8452 14.6158L60.9106 14.691C61.0712 14.8532 61.2909 14.9342 61.4985 14.9342H62.8628L62.9858 14.9215C63.2641 14.8641 63.4731 14.6165 63.4731 14.3219C63.4731 14.2678 63.4688 14.2033 63.4419 14.1285C63.4158 14.0561 63.3729 13.9834 63.3091 13.9039L63.3081 13.9049C63.2425 13.8219 62.3225 12.5807 61.4126 11.3531C60.9577 10.7394 60.5067 10.1308 60.1694 9.67537C60.0008 9.44776 59.8603 9.258 59.7622 9.12557C59.7361 9.09032 59.7118 9.05963 59.6919 9.03279C59.7072 9.01496 59.7249 8.99503 59.7437 8.97322C59.8348 8.86714 59.9646 8.71543 60.1206 8.53377C60.433 8.17008 60.8498 7.68538 61.2661 7.20076C61.6824 6.71616 62.0989 6.23149 62.4106 5.86873C62.5664 5.68749 62.6961 5.53656 62.7866 5.43123C62.8319 5.37861 62.867 5.33714 62.8911 5.30916L62.9253 5.2701L62.9263 5.26912H62.9253C62.9248 5.26968 62.923 5.27231 62.9214 5.27401C62.8984 5.29221 62.8024 5.27952 62.731 5.22127C62.7574 5.19052 62.7763 5.16958 62.7856 5.15877L62.9224 5.27303C63.0257 5.16328 63.0884 5.01817 63.0884 4.85311C63.0884 4.5161 62.812 4.24493 62.478 4.24471H61.4741C61.2182 4.24471 60.9898 4.3606 60.8364 4.53475L60.8345 4.5367L57.7183 8.21053V5.09627C57.7162 4.69394 57.4371 4.36302 57.0659 4.27303V4.24569H55.9341V4.26815C55.5505 4.34957 55.2642 4.68754 55.2642 5.09725V14.0816C55.2642 14.5473 55.6409 14.9342 56.1128 14.9342H56.895Z" fill="#221F1F" stroke="white" stroke-width="0.35732"/>
<path d="M44.9487 14.9344L45.0337 14.9275C45.451 14.8715 45.7729 14.5152 45.7729 14.0818V8.22735C46.1363 9.388 46.537 10.6811 46.8755 11.7811C47.1016 12.5158 47.3007 13.1641 47.4429 13.6287C47.5139 13.8609 47.5707 14.0473 47.6099 14.1756C47.6295 14.2397 47.6445 14.2895 47.6548 14.3231C47.6599 14.3398 47.6639 14.3526 47.6665 14.3611C47.6678 14.3654 47.6688 14.3687 47.6694 14.3709L47.6704 14.3729V14.3738L47.6743 14.3875H47.6753C47.8467 14.8261 48.2163 14.9343 48.4683 14.9344H48.6782C48.791 14.9344 49.1011 14.919 49.3276 14.6971L49.4185 14.5897L49.4194 14.5887L49.4399 14.5496C49.4427 14.5429 49.4455 14.5355 49.4478 14.5291C49.4525 14.5159 49.4581 14.4986 49.4644 14.4793C49.4769 14.4404 49.4936 14.3859 49.5142 14.3182C49.5554 14.1821 49.6126 13.9887 49.6821 13.7508C49.8214 13.2744 50.0118 12.6162 50.2251 11.8738C50.5354 10.794 50.8962 9.53534 51.2241 8.39336V14.0818C51.2241 14.5482 51.6051 14.9344 52.0728 14.9344H52.856L52.9399 14.9275C53.3558 14.8716 53.6802 14.5156 53.6802 14.0818V5.09258C53.6767 4.63588 53.3097 4.26499 52.855 4.24883H51.4761C51.1909 4.24884 50.634 4.35709 50.4341 4.96758L50.4331 4.96954C50.3842 5.12576 49.5414 8.01746 48.8384 10.41C48.1404 8.30191 47.1675 5.30562 47.0952 5.08379V5.08282C46.9876 4.7556 46.8119 4.54172 46.6118 4.41192C46.4142 4.28376 46.2049 4.24493 46.0405 4.24493H44.5679C44.0981 4.24493 43.7175 4.62504 43.7173 5.09356V14.0818C43.7173 14.5482 44.0966 14.9344 44.5679 14.9344H44.9487Z" fill="#221F1F" stroke="white" stroke-width="0.35732"/>
<path d="M39.9644 14.9365C41.3083 14.9365 42.3996 13.8455 42.3999 12.5V10.7686C42.3999 9.42535 41.3074 8.33399 39.9644 8.33399H37.7964C37.3809 8.33375 37.0435 7.99717 37.0435 7.57911V6.9795C37.0435 6.56887 37.3799 6.22973 37.7964 6.2295H40.9595L40.9556 6.06934L40.9595 6.22852C41.4184 6.21798 41.7837 5.8312 41.7837 5.37403V5.09571C41.7835 4.63554 41.4144 4.26423 40.9614 4.24805L40.9556 4.24707H37.1528C35.8104 4.24707 34.7202 5.339 34.7202 6.68457V8.36036C34.7204 9.70236 35.8108 10.792 37.1528 10.792H39.3228C39.7369 10.792 40.0746 11.1309 40.0747 11.5459V12.2022C40.0747 12.6183 39.7368 12.957 39.3228 12.957H35.8472C35.3909 12.9687 35.0212 13.3485 35.021 13.8086V14.0879C35.021 14.5477 35.3927 14.917 35.8442 14.9365H39.9644Z" fill="#221F1F" stroke="white" stroke-width="0.35732"/>
<path d="M98.5381 14.9682C99.8481 14.9681 100.917 13.8988 100.917 12.5913V9.22699C100.917 7.911 99.8478 6.84913 98.5381 6.84906H96.1475C94.834 6.84931 93.7686 7.91131 93.7686 9.22699V12.5913C93.7686 13.8985 94.8348 14.968 96.1475 14.9682H98.5381ZM96.6445 12.9955C96.4042 12.9954 96.215 12.8025 96.2148 12.5727V9.2475C96.2148 9.0091 96.4033 8.82087 96.6445 8.82074H98.0371C98.2768 8.82074 98.4668 9.0101 98.4668 9.2475V12.5727C98.4666 12.8015 98.2759 12.9955 98.0371 12.9955H96.6445Z" fill="#221F1F" stroke="white" stroke-width="0.35732"/>
<path d="M70.3882 14.9686L71.1636 14.9638H71.1665L71.2505 14.9579C71.664 14.9069 71.9868 14.5537 71.9868 14.122V6.29189H74.0786L74.1636 6.28603C74.5809 6.23498 74.8988 5.86959 74.8989 5.44033V5.16201L74.895 5.07705C74.8542 4.65995 74.5068 4.3325 74.0825 4.31728H67.4458C67.0205 4.33259 66.6763 4.66631 66.6323 5.08388L66.6274 5.16787V5.45205L66.6323 5.53603C66.6768 5.95217 67.0229 6.28312 67.4487 6.29091H69.5396V14.121C69.5396 14.5863 69.9189 14.9684 70.3872 14.9686H70.3882Z" fill="#221F1F" stroke="white" stroke-width="0.35732"/>
<path d="M83.7603 14.9678L83.8452 14.961C84.2608 14.9048 84.5806 14.549 84.5806 14.1201V5.16603C84.5806 4.7079 84.2155 4.3365 83.7603 4.32033H83.7544L82.9819 4.3174H82.981C82.5112 4.31743 82.1353 4.70189 82.1353 5.16603V14.1201C82.1353 14.5846 82.5115 14.9678 82.981 14.9678H83.7603Z" fill="#221F1F" stroke="white" stroke-width="0.35732"/>
<path d="M103.975 14.9689L104.059 14.961C104.473 14.9036 104.799 14.5511 104.799 14.1202V8.9044C104.979 8.85503 105.178 8.8214 105.38 8.8214C105.793 8.82157 106.126 9.15468 106.128 9.56065V14.1192C106.128 14.5839 106.506 14.9679 106.976 14.9679H107.751L107.836 14.9601C108.253 14.9023 108.575 14.5492 108.575 14.1192V9.27452C108.575 9.151 108.561 9.02921 108.543 8.91124C108.737 8.85801 108.945 8.82048 109.158 8.82042C109.57 8.82042 109.902 9.15283 109.907 9.55968V14.1183C109.907 14.5832 110.286 14.9669 110.754 14.9669H111.537L111.62 14.9591C112.032 14.9014 112.353 14.5474 112.353 14.1183V9.27354L112.34 9.0255C112.215 7.80185 111.18 6.84889 109.925 6.84874H109.182C108.671 6.84874 108.244 6.98323 107.945 7.11729C107.795 7.18435 107.676 7.25141 107.594 7.30284C107.588 7.30689 107.582 7.31169 107.576 7.31554C107.175 7.02136 106.683 6.84881 106.15 6.84874H105.402C105.03 6.84876 104.707 6.92228 104.442 7.01378C104.31 6.91876 104.15 6.85739 103.973 6.85265H103.969L103.199 6.84874H103.198C102.73 6.84874 102.35 7.22643 102.35 7.6964V14.1202C102.35 14.5849 102.728 14.9689 103.198 14.9689H103.975Z" fill="#221F1F" stroke="white" stroke-width="0.35732"/>
<path d="M87.6572 14.9689L87.7412 14.961C88.1544 14.9034 88.4766 14.5499 88.4766 14.1202V11.5187C88.6642 11.7867 88.9159 12.144 89.1807 12.5206C89.7235 13.2927 90.327 14.1478 90.5645 14.4669H90.5654L90.6543 14.5792C90.8648 14.8259 91.089 14.9689 91.3115 14.9689H92.7832C92.9952 14.9689 93.2057 14.8723 93.3223 14.7013C93.3818 14.6137 93.416 14.5069 93.4092 14.3907C93.4023 14.2754 93.3549 14.163 93.2744 14.0587L93.2754 14.0577C93.056 13.7707 92.3532 12.8466 91.7051 11.9942C91.3811 11.5682 91.0701 11.1602 90.8408 10.8585C90.7262 10.7077 90.6321 10.5827 90.5664 10.4962C90.5613 10.4895 90.5555 10.4838 90.5508 10.4776C90.6044 10.4165 90.6789 10.3323 90.7686 10.2306C90.9606 10.0126 91.2237 9.71508 91.5068 9.39757C91.9329 8.91971 92.4018 8.39963 92.7451 8.03526L93.04 7.73058L93.041 7.7296L93.0967 7.66417C93.211 7.5059 93.2104 7.31674 93.1436 7.1671C93.0705 7.00378 92.9054 6.86143 92.6963 6.86143H91.3789C91.1056 6.86145 90.8503 6.97024 90.6729 7.17882V7.17979C90.6125 7.24878 90.0017 7.95751 89.4014 8.65636C89.0903 9.0185 88.7808 9.37938 88.5488 9.64952C88.5237 9.67879 88.4998 9.70745 88.4766 9.73448V5.16612C88.4766 4.73822 88.1542 4.38313 87.7402 4.32726L87.6562 4.32042H87.6504L86.8779 4.31749H86.877C86.4091 4.31752 86.0312 4.69645 86.0312 5.16612V14.1202C86.0312 14.5845 86.4083 14.9688 86.877 14.9689H87.6572Z" fill="#221F1F" stroke="white" stroke-width="0.35732"/>
<path d="M79.9224 14.9678L80.0063 14.96C80.4184 14.9029 80.7386 14.5547 80.7388 14.126V13.8428C80.7387 13.3898 80.3805 13.0018 79.9194 12.9912H76.77C76.5351 12.9912 76.3481 12.8086 76.3481 12.5801V11.958H78.6626C79.9761 11.958 81.0425 10.8935 81.0425 9.58302V9.23439C81.0425 7.92648 79.975 6.86232 78.6626 6.86232H76.2769C74.9638 6.86256 73.8982 7.92602 73.8979 9.23439V12.5996C73.8981 13.9106 74.9652 14.9675 76.2769 14.9678H79.9224ZM76.3481 9.25783C76.3481 9.02188 76.5426 8.82814 76.77 8.82814H78.1704C78.4025 8.82814 78.5952 9.02206 78.5952 9.25783V9.62697C78.5952 9.86278 78.4034 10.0557 78.1704 10.0557H76.3481V9.25783Z" fill="#221F1F" stroke="white" stroke-width="0.35732"/>
<path fill-rule="evenodd" clip-rule="evenodd" d="M5.61015 28.0518H13.2259V17.4237C13.2259 13.1185 8.36805 11.4065 5.01172 11.7194C5.01172 11.7194 5.61015 12.5658 5.61015 13.3692V28.0518Z" fill="#525257"/>
<path fill-rule="evenodd" clip-rule="evenodd" d="M22.411 11.4554C21.1244 11.4554 18.0188 11.9825 16.52 14.1539C16.8998 16.0608 19.4563 17.5285 21.0476 17.7856C24.8761 18.3987 27.4565 19.547 26.5085 22.6051L28.495 19.547V16.9813C28.4941 12.0639 23.6984 11.4554 22.411 11.4554Z" fill="#525257"/>
<path fill-rule="evenodd" clip-rule="evenodd" d="M28.4943 0.503932C28.4943 0.503932 26.6523 0.93125 21.9326 0.93125C17.4846 0.93125 15.9748 1.79504 14.25 3.1685V12.2758C16.1459 9.75122 18.6376 9.0073 21.9326 9.0073H24.6447C26.763 9.0073 28.4943 8.6422 28.4943 8.6422V0.503932Z" fill="#AE2025"/>
<path fill-rule="evenodd" clip-rule="evenodd" d="M0.000915923 0.503932C0.000915923 0.503932 1.84287 0.93125 6.56717 0.93125C11.0087 0.93125 12.5204 1.79504 14.2498 3.1685V12.2758C12.3438 9.75122 9.86219 9.0073 6.56717 9.0073H3.85594C1.73124 9.0073 0 8.6422 0 8.6422V0.503932H0.000915923Z" fill="#E8212A"/>
<path fill-rule="evenodd" clip-rule="evenodd" d="M28.4931 26.1767C28.4931 26.1767 27.3072 28.4761 22.3633 28.4761C19.2275 28.4761 17.026 27.6233 15.9307 26.8785V17.7666C18.3775 20.1329 21.3266 20.3964 22.3633 20.3964C27.1242 20.3964 28.4931 16.4298 28.4931 16.4298V26.1767Z" fill="#7A7E81"/>
</svg>
