<svg width="86" height="49" viewBox="0 0 86 49" fill="none" xmlns="http://www.w3.org/2000/svg">
<path d="M8.80615 7.54134C3.41367 15.4498 4.28777 25.5111 11.2054 30.0813C19.0153 34.9498 29.7847 31.1914 33.6598 19.0266C35.0812 31.0981 26.5554 38.8068 16.4345 38.6512C8.65052 38.384 0.980695 30.9865 0.752441 22.6242C0.866568 13.1854 6.6948 9.21173 8.80615 7.54134Z" fill="#6C7276"/>
<path d="M7.69054 19.968C11.9184 9.76928 20.688 12.3397 23.2014 13.7975C21.8293 10.397 18.8308 8.88482 13.9467 9.7693C14.2891 7.45564 15.6612 6.2547 17.2901 4.6284C12.1181 5.88379 7.37669 10.7394 7.69054 19.968Z" fill="#DD2F38"/>
<path d="M24.4883 10.7964H29.8003C32.9181 14.3291 32.5083 19.9499 27.6579 25.1089C28.9159 18.9668 28.4594 15.1384 24.4883 10.7964Z" fill="#DADCDF"/>
<path d="M17.8047 8.14024C21.8276 7.46327 23.952 9.6239 28.7738 8.31144C32.2884 7.13905 33.9147 3.99797 34.1741 0.683113C31.5362 2.39242 29.9669 2.10709 24.1465 3.16795C21.6331 3.76971 19.2909 5.39861 17.8047 8.14024Z" fill="#DD2F38"/>
<path d="M15.7472 28.8804C18.8243 28.8804 21.3187 26.3859 21.3187 23.3089C21.3187 20.2319 18.8243 17.7375 15.7472 17.7375C12.6702 17.7375 10.1758 20.2319 10.1758 23.3089C10.1758 26.3859 12.6702 28.8804 15.7472 28.8804Z" fill="#6C7276"/>
<path d="M41.3181 24.1752V22.0639L39.6918 19.5427C39.5491 19.3144 39.448 19.1381 39.3909 19.011C39.3313 18.8839 39.3027 18.7723 39.3027 18.679C39.3027 18.5233 39.3624 18.391 39.4817 18.2795C39.601 18.168 39.7489 18.1109 39.9252 18.1109C40.1094 18.1109 40.2495 18.1628 40.3454 18.2666C40.4414 18.3703 40.5841 18.5804 40.7734 18.8916L42.0184 20.9122L43.2764 18.8916C43.3516 18.7671 43.4165 18.6634 43.4684 18.5778C43.5202 18.4922 43.5773 18.4144 43.6395 18.3392C43.7018 18.2639 43.7692 18.2069 43.847 18.168C43.9223 18.1291 44.0156 18.1083 44.1246 18.1083C44.2932 18.1083 44.4358 18.1628 44.55 18.2743C44.6641 18.3859 44.7211 18.513 44.7211 18.6582C44.7211 18.7775 44.6926 18.8943 44.6356 19.0136C44.5785 19.1329 44.4799 19.2963 44.3399 19.5038L42.6721 22.0613V24.1726C42.6721 24.4476 42.6072 24.6551 42.4801 24.7899C42.353 24.9274 42.1922 24.9948 41.9951 24.9948C41.7954 24.9948 41.6345 24.9274 41.51 24.7925C41.3804 24.6602 41.3181 24.4527 41.3181 24.1752Z" fill="#202020"/>
<path d="M47.6703 24.2973C47.3694 24.5307 47.0815 24.7045 46.8014 24.8213C46.5213 24.938 46.2074 24.995 45.8599 24.995C45.5408 24.995 45.2633 24.9328 45.0221 24.8057C44.7808 24.6812 44.5967 24.51 44.467 24.2947C44.3373 24.0794 44.2725 23.846 44.2725 23.5944C44.2725 23.2546 44.3788 22.9667 44.5941 22.7281C44.8094 22.4894 45.1051 22.3286 45.4786 22.2456C45.5564 22.2275 45.7535 22.186 46.0648 22.1237C46.376 22.0589 46.6432 22.0018 46.8662 21.9499C47.0893 21.898 47.3305 21.8332 47.5899 21.758C47.5744 21.4312 47.5095 21.1899 47.3928 21.0369C47.2761 20.8839 47.0348 20.8086 46.6691 20.8086C46.3553 20.8086 46.1166 20.8527 45.9584 20.9409C45.8002 21.0291 45.6627 21.1614 45.5486 21.3352C45.4345 21.5116 45.3541 21.6257 45.3074 21.6828C45.2607 21.7398 45.1595 21.7658 45.0065 21.7658C44.8664 21.7658 44.7471 21.7217 44.646 21.6309C44.5448 21.5427 44.4929 21.4286 44.4929 21.2885C44.4929 21.0706 44.5707 20.8579 44.7238 20.653C44.8794 20.4481 45.118 20.2769 45.4448 20.1447C45.7717 20.0124 46.1789 19.9449 46.6665 19.9449C47.2112 19.9449 47.6392 20.0098 47.953 20.1369C48.2643 20.2666 48.4848 20.4689 48.6145 20.7464C48.7441 21.0239 48.8064 21.3948 48.8064 21.8539C48.8064 22.1445 48.8064 22.3909 48.8038 22.5932C48.8012 22.7955 48.7986 23.0211 48.796 23.2701C48.796 23.5036 48.8349 23.7474 48.9127 23.999C48.9906 24.2506 49.0295 24.414 49.0295 24.4866C49.0295 24.6137 48.9698 24.7305 48.8505 24.8342C48.7312 24.938 48.5963 24.9898 48.4433 24.9898C48.3162 24.9898 48.1917 24.9302 48.0672 24.8109C47.9401 24.6967 47.8104 24.5256 47.6703 24.2973ZM47.5873 22.5024C47.4058 22.5698 47.1412 22.6399 46.7936 22.7125C46.4461 22.7851 46.2074 22.8422 46.0751 22.8759C45.9429 22.9096 45.8158 22.9796 45.6938 23.0808C45.5719 23.182 45.5123 23.3246 45.5123 23.5062C45.5123 23.6929 45.5823 23.8537 45.725 23.986C45.8676 24.1183 46.0544 24.1832 46.2826 24.1832C46.5291 24.1832 46.7547 24.1287 46.9622 24.0223C47.1697 23.916 47.3228 23.7759 47.4187 23.6074C47.5303 23.4206 47.5873 23.112 47.5873 22.6814V22.5024Z" fill="#202020"/>
<path d="M50.6482 25.1506L50.7623 24.873L49.2372 21.0316C49.1438 20.8112 49.0971 20.6503 49.0971 20.5492C49.0971 20.4428 49.1256 20.3443 49.1801 20.2535C49.2346 20.1627 49.3098 20.0901 49.4058 20.0356C49.5017 19.9812 49.6003 19.9526 49.704 19.9526C49.883 19.9526 50.0179 20.0097 50.1087 20.1238C50.1995 20.2379 50.2799 20.4013 50.3499 20.6114L51.3978 23.6643L52.3912 20.8267C52.469 20.5959 52.5416 20.4169 52.6039 20.2872C52.6661 20.1575 52.7362 20.0694 52.8062 20.0227C52.8762 19.976 52.9774 19.9552 53.1071 19.9552C53.2005 19.9552 53.2912 19.9811 53.3768 20.0304C53.4624 20.0797 53.5299 20.1472 53.5766 20.2328C53.6232 20.3183 53.6466 20.4065 53.6466 20.4999C53.6336 20.557 53.6155 20.64 53.5869 20.7463C53.5584 20.8527 53.5273 20.959 53.4884 21.0679L51.8724 25.301C51.7324 25.6745 51.5975 25.965 51.4626 26.1777C51.3303 26.3904 51.154 26.5512 50.9335 26.6653C50.713 26.7795 50.4173 26.8365 50.0464 26.8365C49.6833 26.8365 49.4109 26.7976 49.2294 26.7172C49.0478 26.6394 48.957 26.4941 48.957 26.2866C48.957 26.144 49.0011 26.0351 49.0867 25.9573C49.1723 25.8794 49.302 25.8405 49.4706 25.8405C49.538 25.8405 49.6029 25.8509 49.6651 25.869C49.743 25.8872 49.813 25.8976 49.87 25.8976C50.0127 25.8976 50.1242 25.8768 50.2072 25.8327C50.2902 25.7912 50.3629 25.716 50.4277 25.6123C50.4874 25.5085 50.5626 25.3529 50.6482 25.1506Z" fill="#202020"/>
<path d="M57.1195 24.2973C56.8187 24.5307 56.5307 24.7045 56.2506 24.8213C55.9705 24.938 55.6566 24.995 55.3091 24.995C54.99 24.995 54.7125 24.9328 54.4713 24.8057C54.2301 24.6812 54.0459 24.51 53.9162 24.2947C53.7865 24.0794 53.7217 23.846 53.7217 23.5944C53.7217 23.2546 53.828 22.9667 54.0433 22.7281C54.2586 22.4894 54.5543 22.3286 54.9278 22.2456C55.0056 22.2275 55.2027 22.186 55.514 22.1237C55.8252 22.0589 56.0924 22.0018 56.3155 21.9499C56.5385 21.898 56.7798 21.8332 57.0391 21.758C57.0236 21.4312 56.9587 21.1899 56.842 21.0369C56.7253 20.8839 56.4841 20.8086 56.1183 20.8086C55.8045 20.8086 55.5659 20.8527 55.4076 20.9409C55.2494 21.0291 55.112 21.1614 54.9978 21.3352C54.8837 21.5116 54.8033 21.6257 54.7566 21.6828C54.7099 21.7398 54.6088 21.7658 54.4557 21.7658C54.3157 21.7658 54.1963 21.7217 54.0952 21.6309C53.994 21.5427 53.9422 21.4286 53.9422 21.2885C53.9422 21.0706 54.02 20.8579 54.173 20.653C54.3286 20.4481 54.5673 20.2769 54.8941 20.1447C55.2209 20.0124 55.6281 19.9449 56.1157 19.9449C56.6604 19.9449 57.0884 20.0098 57.4023 20.1369C57.7135 20.2666 57.934 20.4689 58.0637 20.7464C58.1934 21.0239 58.2556 21.3948 58.2556 21.8539C58.2556 22.1445 58.2556 22.3909 58.253 22.5932C58.2504 22.7955 58.2478 23.0211 58.2452 23.2701C58.2452 23.5036 58.2842 23.7474 58.362 23.999C58.4398 24.2506 58.4787 24.414 58.4787 24.4866C58.4787 24.6137 58.419 24.7305 58.2997 24.8342C58.1804 24.938 58.0455 24.9898 57.8925 24.9898C57.7654 24.9898 57.6409 24.9302 57.5164 24.8109C57.3893 24.6967 57.257 24.5256 57.1195 24.2973ZM57.0365 22.5024C56.855 22.5698 56.5904 22.6399 56.2428 22.7125C55.8953 22.7851 55.6566 22.8422 55.5244 22.8759C55.3921 22.9096 55.265 22.9796 55.1431 23.0808C55.0212 23.182 54.9615 23.3246 54.9615 23.5062C54.9615 23.6929 55.0315 23.8537 55.1742 23.986C55.3169 24.1183 55.5036 24.1832 55.7319 24.1832C55.9783 24.1832 56.2039 24.1287 56.4114 24.0223C56.6189 23.916 56.772 23.7759 56.8679 23.6074C56.9795 23.4206 57.0365 23.112 57.0365 22.6814V22.5024Z" fill="#202020"/>
<path d="M63.0676 23.3764C63.0676 23.7188 62.9846 24.0119 62.8186 24.2557C62.6526 24.4995 62.4062 24.6836 62.0794 24.8107C61.7526 24.9352 61.3583 25.0001 60.8914 25.0001C60.4453 25.0001 60.064 24.9326 59.7476 24.7952C59.4285 24.6577 59.1951 24.4891 59.0447 24.2842C58.8942 24.0793 58.8164 23.8744 58.8164 23.6695C58.8164 23.532 58.8657 23.4179 58.9617 23.3193C59.0576 23.2233 59.1821 23.174 59.33 23.174C59.4597 23.174 59.5608 23.2052 59.6309 23.27C59.7009 23.3349 59.7657 23.4231 59.8306 23.5372C59.9577 23.7577 60.1107 23.9237 60.2871 24.0326C60.4635 24.1415 60.7047 24.196 61.0107 24.196C61.2597 24.196 61.4621 24.1415 61.6229 24.03C61.7811 23.9185 61.8615 23.794 61.8615 23.6513C61.8615 23.4335 61.7785 23.2752 61.6151 23.174C61.4491 23.0729 61.1793 22.9795 60.8007 22.8887C60.3727 22.7824 60.0251 22.6709 59.7579 22.5541C59.4908 22.4374 59.2755 22.2844 59.1147 22.0925C58.9539 21.9005 58.8735 21.6671 58.8735 21.3895C58.8735 21.1405 58.9487 20.9071 59.0965 20.6866C59.2444 20.4661 59.4648 20.2898 59.7528 20.1575C60.0407 20.0252 60.3908 19.9603 60.8007 19.9603C61.1223 19.9603 61.4102 19.9941 61.667 20.0615C61.9238 20.1289 62.1364 20.2171 62.3076 20.3287C62.4788 20.4402 62.6085 20.5647 62.6993 20.7022C62.7875 20.8397 62.8342 20.9719 62.8342 21.1016C62.8342 21.2443 62.7875 21.361 62.6915 21.4518C62.5955 21.5426 62.4607 21.5893 62.2843 21.5893C62.1572 21.5893 62.0483 21.553 61.9601 21.4803C61.8719 21.4077 61.7681 21.2988 61.654 21.1535C61.5606 21.0316 61.4491 20.9356 61.322 20.863C61.1949 20.7904 61.0211 20.7541 60.8032 20.7541C60.5802 20.7541 60.3934 20.8008 60.2456 20.8967C60.0977 20.9927 60.0225 21.112 60.0225 21.2521C60.0225 21.3818 60.077 21.4881 60.1859 21.5711C60.2949 21.6541 60.4427 21.7241 60.6269 21.7786C60.811 21.8331 61.0652 21.9005 61.3894 21.9783C61.7733 22.0717 62.0872 22.1832 62.331 22.3155C62.5748 22.4452 62.759 22.5983 62.886 22.7772C63.0131 22.9562 63.0676 23.1481 63.0676 23.3764Z" fill="#202020"/>
<path d="M66.8124 24.2973C66.5115 24.5307 66.2236 24.7045 65.9435 24.8213C65.6634 24.938 65.3495 24.995 65.0019 24.995C64.6829 24.995 64.4054 24.9328 64.1642 24.8057C63.9229 24.6812 63.7388 24.51 63.6091 24.2947C63.4794 24.0794 63.4146 23.846 63.4146 23.5944C63.4146 23.2546 63.5209 22.9667 63.7362 22.7281C63.9515 22.4894 64.2472 22.3286 64.6207 22.2456C64.6985 22.2275 64.8956 22.186 65.2069 22.1237C65.5181 22.0589 65.7853 22.0018 66.0083 21.9499C66.2314 21.898 66.4726 21.8332 66.732 21.758C66.7164 21.4312 66.6516 21.1899 66.5349 21.0369C66.4182 20.8839 66.1769 20.8086 65.8112 20.8086C65.4974 20.8086 65.2587 20.8527 65.1005 20.9409C64.9423 21.0291 64.8048 21.1614 64.6907 21.3352C64.5766 21.5116 64.4962 21.6257 64.4495 21.6828C64.4028 21.7398 64.3016 21.7658 64.1486 21.7658C64.0085 21.7658 63.8892 21.7217 63.7881 21.6309C63.6869 21.5427 63.635 21.4286 63.635 21.2885C63.635 21.0706 63.7128 20.8579 63.8659 20.653C64.0215 20.4481 64.2601 20.2769 64.5869 20.1447C64.9138 20.0124 65.321 19.9449 65.8086 19.9449C66.3533 19.9449 66.7813 20.0098 67.0951 20.1369C67.4064 20.2666 67.6269 20.4689 67.7566 20.7464C67.8862 21.0239 67.9485 21.3948 67.9485 21.8539C67.9485 22.1445 67.9485 22.3909 67.9459 22.5932C67.9433 22.7955 67.9407 23.0211 67.9381 23.2701C67.9381 23.5036 67.977 23.7474 68.0548 23.999C68.1326 24.2506 68.1716 24.414 68.1716 24.4866C68.1716 24.6137 68.1119 24.7305 67.9926 24.8342C67.8733 24.938 67.7384 24.9898 67.5854 24.9898C67.4583 24.9898 67.3338 24.9302 67.2093 24.8109C67.0822 24.6967 66.9499 24.5256 66.8124 24.2973ZM66.7294 22.5024C66.5478 22.5698 66.2833 22.6399 65.9357 22.7125C65.5881 22.7877 65.3495 22.8422 65.2172 22.8759C65.085 22.9096 64.9579 22.9796 64.8359 23.0808C64.714 23.182 64.6544 23.3246 64.6544 23.5062C64.6544 23.6929 64.7244 23.8537 64.8671 23.986C65.0097 24.1183 65.1965 24.1832 65.4247 24.1832C65.6711 24.1832 65.8968 24.1287 66.1043 24.0223C66.3118 23.916 66.4648 23.7759 66.5608 23.6074C66.6723 23.4206 66.7294 23.112 66.7294 22.6814V22.5024Z" fill="#202020"/>
<path d="M69.894 20.6425V20.793C70.1118 20.5051 70.3505 20.2949 70.6098 20.1601C70.8692 20.0252 71.1649 19.9578 71.5021 19.9578C71.8289 19.9578 72.122 20.0278 72.3788 20.1705C72.6356 20.3131 72.8275 20.5128 72.9546 20.7748C73.0376 20.9252 73.0895 21.0886 73.1128 21.265C73.1362 21.4414 73.1491 21.6645 73.1491 21.9368V24.2427C73.1491 24.4917 73.0921 24.6785 72.978 24.8055C72.8638 24.9326 72.716 24.9975 72.5344 24.9975C72.3503 24.9975 72.1998 24.9326 72.0857 24.803C71.9716 24.6733 71.9145 24.4865 71.9145 24.2453V22.178C71.9145 21.7682 71.8574 21.457 71.7433 21.2391C71.6292 21.0212 71.4035 20.9149 71.0638 20.9149C70.8433 20.9149 70.641 20.9797 70.4594 21.112C70.2778 21.2443 70.1455 21.4258 70.06 21.6541C70.0003 21.8383 69.9692 22.1832 69.9692 22.689V24.2427C69.9692 24.4943 69.9095 24.6836 69.7954 24.8081C69.6787 24.9326 69.5282 24.9975 69.3441 24.9975C69.1651 24.9975 69.0173 24.9326 68.9031 24.803C68.789 24.6733 68.7319 24.4865 68.7319 24.2453V20.6633C68.7319 20.4272 68.7838 20.2509 68.8876 20.1341C68.9913 20.0174 69.1314 19.9603 69.3104 19.9603C69.4193 19.9603 69.5178 19.9863 69.606 20.0382C69.6942 20.09 69.7643 20.1679 69.8161 20.269C69.868 20.3676 69.894 20.4921 69.894 20.6425Z" fill="#202020"/>
<path d="M41.9146 31.4222H40.68V33.3079C40.68 33.5777 40.6177 33.7826 40.488 33.92C40.3609 34.0601 40.2001 34.1275 40.0056 34.1301C39.8033 34.1301 39.6399 34.0627 39.5154 33.9252C39.3909 33.7852 39.3286 33.5829 39.3286 33.3157V28.1852C39.3286 27.8895 39.396 27.6768 39.5335 27.5497C39.671 27.4226 39.8863 27.3603 40.182 27.3603H41.912C42.423 27.3603 42.8172 27.3993 43.0922 27.4771C43.3645 27.5523 43.6006 27.6794 43.7951 27.8532C43.9948 28.0295 44.1453 28.2448 44.249 28.499C44.3528 28.7532 44.4046 29.0385 44.4046 29.3576C44.4046 30.0346 44.1946 30.5507 43.777 30.9009C43.3645 31.2458 42.742 31.4222 41.9146 31.4222ZM41.5878 28.3693H40.68V30.4028H41.5878C41.9068 30.4028 42.1714 30.3691 42.3815 30.3043C42.5968 30.2368 42.7602 30.1279 42.8717 29.9775C42.9833 29.8271 43.0403 29.6273 43.0403 29.3835C43.0403 29.0904 42.9547 28.8518 42.7809 28.665C42.589 28.4679 42.1896 28.3693 41.5878 28.3693Z" fill="#202020"/>
<path d="M48.119 31.9127H45.6938C45.7016 32.1954 45.7561 32.4418 45.8624 32.6571C45.974 32.8724 46.1218 33.0332 46.3034 33.1421C46.4875 33.251 46.6899 33.3055 46.9129 33.3055C47.0608 33.3055 47.1956 33.2899 47.3175 33.2562C47.442 33.2199 47.5614 33.1654 47.6755 33.0928C47.7896 33.0176 47.896 32.9372 47.9945 32.8516C48.0905 32.766 48.2176 32.6519 48.3706 32.5066C48.4355 32.4522 48.5263 32.4236 48.643 32.4236C48.7701 32.4236 48.8738 32.4574 48.9516 32.5274C49.0294 32.5974 49.0709 32.696 49.0709 32.8231C49.0709 32.9346 49.0269 33.0669 48.9387 33.2173C48.8505 33.3652 48.7182 33.5104 48.5392 33.6479C48.3628 33.7828 48.1424 33.8969 47.8726 33.9877C47.6055 34.0785 47.2994 34.1252 46.9518 34.1252C46.1555 34.1252 45.5356 33.8969 45.0947 33.443C44.6537 32.9891 44.4307 32.3718 44.4307 31.5936C44.4307 31.2279 44.4851 30.8881 44.5941 30.5769C44.703 30.263 44.8612 29.9933 45.0713 29.7676C45.2814 29.5445 45.5382 29.3733 45.8443 29.254C46.1503 29.1321 46.4901 29.0724 46.861 29.0724C47.3461 29.0724 47.7611 29.1762 48.1061 29.3811C48.4536 29.5834 48.7156 29.848 48.8868 30.1722C49.058 30.4965 49.1462 30.8259 49.1462 31.1631C49.1462 31.4743 49.058 31.6766 48.879 31.7726C48.6948 31.866 48.4432 31.9127 48.119 31.9127ZM45.6938 31.2072H47.9427C47.9115 30.7844 47.7974 30.4679 47.5977 30.2578C47.4006 30.0451 47.1412 29.9388 46.8169 29.9388C46.5083 29.9388 46.2541 30.0451 46.0544 30.2604C45.8572 30.4757 45.7379 30.7896 45.6938 31.2072Z" fill="#202020"/>
<path d="M50.8638 29.7726V29.923C51.0817 29.6351 51.3203 29.4251 51.5771 29.2928C51.8365 29.1579 52.1348 29.0879 52.472 29.0879C52.7988 29.0879 53.0919 29.1579 53.3487 29.3005C53.6055 29.4432 53.7974 29.6455 53.9245 29.9049C54.0075 30.0553 54.0594 30.2188 54.0827 30.3951C54.1061 30.5715 54.119 30.7946 54.119 31.0669V33.3728C54.119 33.6218 54.062 33.8085 53.9453 33.9356C53.8337 34.0627 53.6859 34.125 53.5043 34.1276C53.3201 34.1276 53.1697 34.0627 53.0556 33.9331C52.9415 33.8034 52.8844 33.6166 52.8844 33.3754V31.3081C52.8844 30.8983 52.8273 30.5871 52.7106 30.3718C52.5991 30.1539 52.3734 30.0449 52.0336 30.0449C51.8132 30.0449 51.6108 30.1124 51.4293 30.2447C51.2477 30.3744 51.1154 30.5559 51.0298 30.7842C50.9702 30.9684 50.939 31.3133 50.939 31.8191V33.3728C50.939 33.6244 50.8794 33.8137 50.7627 33.9408C50.6485 34.0653 50.4981 34.1276 50.314 34.1276C50.135 34.1276 49.9897 34.0627 49.873 33.9331C49.7589 33.8034 49.6992 33.6166 49.6992 33.3754V29.7934C49.6992 29.5573 49.7511 29.3809 49.8548 29.2668C49.9586 29.1475 50.0987 29.0905 50.2776 29.0905C50.3866 29.0905 50.4851 29.1164 50.5733 29.1682C50.6615 29.2201 50.7316 29.2979 50.7834 29.3991C50.8379 29.5003 50.8638 29.6248 50.8638 29.7726Z" fill="#202020"/>
<path d="M58.3082 33.4194V33.2975C58.1422 33.4895 57.9762 33.6451 57.8128 33.7644C57.6519 33.8837 57.4756 33.9719 57.2862 34.0316C57.0995 34.0964 56.892 34.1276 56.6689 34.1276C56.3732 34.1276 56.0957 34.0653 55.8415 33.9408C55.5899 33.8137 55.372 33.6347 55.1878 33.4013C55.0037 33.1679 54.8636 32.8929 54.7651 32.5791C54.6717 32.2652 54.625 31.9228 54.625 31.5571C54.625 30.7816 54.8143 30.1772 55.193 29.7441C55.5717 29.3109 56.0697 29.0956 56.6871 29.0956C57.045 29.0956 57.3459 29.1579 57.5897 29.2824C57.8361 29.4043 58.0747 29.591 58.3082 29.8452V28.014C58.3082 27.7598 58.3575 27.5679 58.4586 27.4382C58.5624 27.3085 58.7076 27.2437 58.8944 27.2437C59.0811 27.2437 59.2264 27.3033 59.3249 27.4252C59.4287 27.5445 59.4806 27.7183 59.4806 27.9518V33.4194C59.4806 33.6555 59.4261 33.8319 59.3172 33.9512C59.2082 34.0679 59.0682 34.1276 58.8944 34.1276C58.7258 34.1276 58.5831 34.0679 58.4716 33.946C58.3626 33.8215 58.3082 33.6477 58.3082 33.4194ZM55.87 31.5986C55.87 31.9358 55.9219 32.2211 56.0256 32.4572C56.132 32.6932 56.2746 32.8721 56.4562 32.9941C56.6378 33.1108 56.8349 33.1704 57.0502 33.1704C57.2681 33.1704 57.4678 33.1134 57.6442 33.0018C57.8257 32.8877 57.9684 32.7139 58.0747 32.4805C58.1837 32.2445 58.2381 31.9514 58.2381 31.5986C58.2381 31.2692 58.1837 30.9865 58.0747 30.7505C57.9684 30.5118 57.8231 30.3302 57.639 30.2057C57.4574 30.0786 57.2577 30.0164 57.0398 30.0164C56.8116 30.0164 56.6092 30.0812 56.4303 30.2109C56.2513 30.338 56.1112 30.5222 56.0127 30.766C55.9167 31.002 55.87 31.2796 55.87 31.5986Z" fill="#202020"/>
<path d="M61.5237 29.7906V33.3727C61.5237 33.6217 61.464 33.8084 61.3473 33.9355C61.228 34.0626 61.0801 34.1249 60.8986 34.1275C60.717 34.1275 60.5692 34.0626 60.4524 33.9329C60.3409 33.8032 60.2838 33.6165 60.2838 33.3753V29.8295C60.2838 29.5831 60.3409 29.399 60.4524 29.2745C60.5666 29.15 60.717 29.0877 60.8986 29.0877C61.0801 29.0877 61.2306 29.15 61.3473 29.2745C61.464 29.3964 61.5237 29.5702 61.5237 29.7906ZM60.9089 28.5093C60.7352 28.5093 60.5873 28.4575 60.4628 28.3511C60.3409 28.2448 60.2812 28.0943 60.2812 27.9024C60.2812 27.726 60.3435 27.5833 60.468 27.4718C60.5951 27.3577 60.7429 27.3006 60.9089 27.3006C61.0698 27.3006 61.2124 27.3525 61.3369 27.4536C61.4614 27.5574 61.5237 27.7053 61.5237 27.9024C61.5237 28.0943 61.464 28.2422 61.3421 28.3511C61.2202 28.4575 61.0775 28.5093 60.9089 28.5093Z" fill="#202020"/>
<path d="M66.3511 33.4194V33.2975C66.1851 33.4895 66.0191 33.6451 65.8557 33.7644C65.6949 33.8837 65.5185 33.9719 65.3292 34.0316C65.1424 34.0964 64.9349 34.1276 64.7119 34.1276C64.4162 34.1276 64.1386 34.0653 63.8845 33.9408C63.6329 33.8137 63.415 33.6347 63.2308 33.4013C63.0467 33.1679 62.9066 32.8929 62.808 32.5791C62.7147 32.2652 62.668 31.9228 62.668 31.5571C62.668 30.7816 62.8573 30.1772 63.236 29.7441C63.6147 29.3109 64.1127 29.0956 64.73 29.0956C65.088 29.0956 65.3889 29.1579 65.6327 29.2824C65.8791 29.4043 66.1177 29.591 66.3511 29.8452V28.014C66.3511 27.7598 66.4004 27.5679 66.5016 27.4382C66.6053 27.3085 66.7506 27.2437 66.9373 27.2437C67.1241 27.2437 67.2694 27.3033 67.3679 27.4252C67.4717 27.5445 67.5209 27.7183 67.5209 27.9518V33.4194C67.5209 33.6555 67.4665 33.8319 67.3575 33.9512C67.2486 34.0679 67.1085 34.1276 66.9347 34.1276C66.7662 34.1276 66.6235 34.0679 66.512 33.946C66.4082 33.8215 66.3537 33.6477 66.3511 33.4194ZM63.913 31.5986C63.913 31.9358 63.9649 32.2211 64.0686 32.4572C64.175 32.6932 64.3176 32.8721 64.4992 32.9941C64.6807 33.1108 64.8779 33.1704 65.0932 33.1704C65.311 33.1704 65.5082 33.1134 65.6871 33.0018C65.8687 32.8877 66.0114 32.7139 66.1177 32.4805C66.2266 32.2445 66.2811 31.9514 66.2811 31.5986C66.2811 31.2692 66.2266 30.9865 66.1177 30.7505C66.0114 30.5118 65.8661 30.3302 65.682 30.2057C65.5004 30.0786 65.3007 30.0164 65.0828 30.0164C64.8545 30.0164 64.6522 30.0812 64.4732 30.2109C64.2943 30.338 64.1542 30.5222 64.0556 30.766C63.9623 31.002 63.913 31.2796 63.913 31.5986Z" fill="#202020"/>
<path d="M69.5675 29.7906V33.3727C69.5675 33.6217 69.5078 33.8084 69.3911 33.9355C69.2744 34.0626 69.1239 34.1249 68.9424 34.1275C68.7608 34.1275 68.613 34.0626 68.4962 33.9329C68.3847 33.8032 68.3276 33.6165 68.3276 33.3753V29.8295C68.3276 29.5831 68.3847 29.399 68.4962 29.2745C68.6104 29.15 68.7608 29.0877 68.9424 29.0877C69.1239 29.0877 69.2744 29.15 69.3911 29.2745C69.5104 29.3964 69.5675 29.5702 69.5675 29.7906ZM68.9553 28.5093C68.7816 28.5093 68.6337 28.4575 68.5092 28.3511C68.3873 28.2448 68.3276 28.0943 68.3276 27.9024C68.3276 27.726 68.3899 27.5833 68.5144 27.4718C68.6415 27.3577 68.7893 27.3006 68.9553 27.3006C69.1162 27.3006 69.2588 27.3525 69.3833 27.4536C69.5078 27.5574 69.5701 27.7053 69.5701 27.9024C69.5701 28.0943 69.5104 28.2422 69.3885 28.3511C69.2666 28.4575 69.1213 28.5093 68.9553 28.5093Z" fill="#202020"/>
<path d="M73.5025 33.5595L72.4079 31.762L71.7361 32.3975V33.3831C71.7361 33.6217 71.6713 33.8059 71.5442 33.9382C71.4197 34.0653 71.277 34.1301 71.1136 34.1301C70.9217 34.1301 70.7738 34.0679 70.6649 33.9382C70.5559 33.8111 70.5015 33.6244 70.5015 33.3754V28.0892C70.5015 27.8143 70.5533 27.6042 70.6597 27.4615C70.766 27.3163 70.9165 27.2437 71.1136 27.2437C71.3055 27.2437 71.456 27.3085 71.5675 27.4382C71.679 27.5679 71.7361 27.7598 71.7361 28.014V31.0202L73.1316 29.5573C73.3053 29.3757 73.435 29.2512 73.5258 29.1838C73.6166 29.1164 73.7281 29.0852 73.8578 29.0852C74.0135 29.0852 74.1405 29.1345 74.2443 29.2357C74.348 29.3316 74.3999 29.4561 74.3999 29.604C74.3999 29.7856 74.2313 30.0268 73.8967 30.3303L73.2379 30.9346L74.5089 32.9318C74.6022 33.0797 74.6697 33.1938 74.7086 33.2716C74.7501 33.3468 74.7734 33.4194 74.7734 33.4895C74.7734 33.6866 74.719 33.8422 74.61 33.9564C74.5037 34.0679 74.3636 34.125 74.1872 34.125C74.0368 34.125 73.9201 34.0834 73.8371 34.003C73.7515 33.9226 73.6425 33.7748 73.5025 33.5595Z" fill="#202020"/>
<path d="M78.088 33.4271C77.7871 33.6606 77.4966 33.837 77.2164 33.9537C76.9389 34.0678 76.6251 34.1249 76.2775 34.1275C75.9585 34.1275 75.6783 34.0652 75.4371 33.9407C75.1985 33.8136 75.0143 33.6424 74.882 33.4271C74.7523 33.2119 74.6875 32.9784 74.6875 32.7268C74.6875 32.387 74.7939 32.0991 75.0091 31.8605C75.2244 31.6219 75.5201 31.461 75.8936 31.378C75.9714 31.3599 76.1686 31.3184 76.4798 31.2561C76.7911 31.1913 77.0582 31.1342 77.2787 31.0823C77.5018 31.0279 77.7456 30.963 78.005 30.8878C77.9894 30.561 77.9245 30.3224 77.8052 30.1694C77.6911 30.0137 77.4499 29.9385 77.0842 29.9385C76.7703 29.9385 76.5317 29.9826 76.3709 30.0708C76.2127 30.159 76.0778 30.2912 75.961 30.465C75.8495 30.6414 75.7691 30.7581 75.7198 30.8152C75.6757 30.8697 75.5746 30.8982 75.4189 30.8982C75.2789 30.8982 75.1596 30.8541 75.0558 30.7659C74.9573 30.6751 74.9054 30.561 74.9054 30.4209C74.9054 30.2031 74.9832 29.9904 75.1362 29.7855C75.2919 29.5805 75.5305 29.4094 75.8573 29.2771C76.1841 29.1448 76.5913 29.0774 77.079 29.0774C77.6237 29.0774 78.0516 29.1422 78.3655 29.2719C78.6767 29.399 78.8972 29.6013 79.0243 29.8814C79.154 30.159 79.2188 30.5299 79.2188 30.989C79.2188 31.2795 79.2188 31.5259 79.2188 31.7282C79.2188 31.9305 79.2188 32.1562 79.2188 32.4052C79.2188 32.6386 79.2578 32.8824 79.333 33.1366C79.4108 33.3882 79.4497 33.549 79.4523 33.6217C79.4523 33.7488 79.3926 33.8655 79.2707 33.9718C79.154 34.0756 79.0191 34.1275 78.8661 34.1275C78.739 34.1275 78.6145 34.0678 78.49 33.9511C78.3655 33.8292 78.2332 33.6554 78.0957 33.4297L78.088 33.4271ZM78.0075 31.6348C77.826 31.7023 77.5614 31.7723 77.2139 31.8475C76.8689 31.9202 76.6302 31.9746 76.4954 32.0109C76.3631 32.0447 76.236 32.1121 76.1141 32.2158C75.9922 32.317 75.9325 32.4571 75.9325 32.6386C75.9325 32.8254 76.0026 32.9862 76.1452 33.1211C76.2879 33.2508 76.4746 33.3156 76.7029 33.3156C76.9493 33.3156 77.1723 33.2637 77.3798 33.1574C77.5899 33.0484 77.7404 32.9084 77.839 32.7398C77.9505 32.553 78.0075 32.2444 78.0075 31.8138V31.6348Z" fill="#202020"/>
<path d="M81.1591 29.7726V29.923C81.377 29.6351 81.6156 29.4251 81.8724 29.2928C82.1318 29.1579 82.43 29.0879 82.7672 29.0879C83.0941 29.0879 83.3872 29.1579 83.6439 29.3005C83.9007 29.4432 84.0927 29.6455 84.2198 29.9049C84.3028 30.0553 84.3546 30.2188 84.378 30.3951C84.4013 30.5715 84.4143 30.7946 84.4143 31.0669V33.3728C84.4143 33.6218 84.3572 33.8085 84.2405 33.9356C84.129 34.0627 83.9811 34.125 83.7996 34.1276C83.6154 34.1276 83.465 34.0627 83.3508 33.9331C83.2367 33.8034 83.1796 33.6166 83.1796 33.3754V31.3081C83.1796 30.8983 83.1226 30.5871 83.0059 30.3718C82.8943 30.1539 82.6687 30.0449 82.3289 30.0449C82.1084 30.0449 81.9061 30.1124 81.7245 30.2447C81.543 30.3744 81.4107 30.5559 81.3251 30.7842C81.2654 30.9684 81.2343 31.3133 81.2343 31.8191V33.3728C81.2343 33.6244 81.1747 33.8137 81.0579 33.9408C80.9438 34.0653 80.7934 34.1276 80.6092 34.1276C80.4302 34.1276 80.285 34.0627 80.1683 33.9331C80.0541 33.8034 79.9971 33.6166 79.9971 33.3754V29.7934C79.9971 29.5573 80.049 29.3809 80.1501 29.2668C80.2539 29.1475 80.3939 29.0905 80.5729 29.0905C80.6818 29.0905 80.7804 29.1164 80.8686 29.1682C80.9568 29.2201 81.0268 29.2979 81.0787 29.3991C81.1332 29.5003 81.1591 29.6248 81.1591 29.7726Z" fill="#202020"/>
<path d="M45.3583 38.2593H42.8534V46.8539C42.8534 47.3491 42.7471 47.7183 42.5359 47.9598C42.3248 48.1968 42.0514 48.3152 41.7172 48.3152C41.3769 48.3152 41.099 48.1937 40.8817 47.9522C40.6706 47.7107 40.5643 47.3446 40.5643 46.8539V38.2593H38.0594C37.6675 38.2593 37.3758 38.1712 37.1859 37.9935C36.9946 37.8112 36.9004 37.5712 36.9004 37.275C36.9004 36.9681 36.9976 36.7266 37.1936 36.5489C37.3941 36.3712 37.6827 36.2831 38.0594 36.2831H45.3568C45.7532 36.2831 46.0479 36.3742 46.2378 36.558C46.4338 36.7403 46.531 36.9803 46.531 37.2765C46.531 37.5727 46.4338 37.8112 46.2378 37.995C46.0434 38.1712 45.7502 38.2593 45.3583 38.2593Z" fill="#202020"/>
<path d="M50.1354 44.378H46.0067C46.0112 44.8778 46.1069 45.3198 46.2922 45.7011C46.4836 46.0824 46.7328 46.371 47.0427 46.5654C47.3571 46.7598 47.7019 46.8555 48.0786 46.8555C48.3308 46.8555 48.5601 46.8267 48.7667 46.7674C48.9779 46.7021 49.1814 46.6064 49.3774 46.4773C49.5733 46.3421 49.7541 46.2008 49.9181 46.0489C50.0822 45.897 50.2964 45.6935 50.5592 45.4352C50.667 45.338 50.822 45.2894 51.0225 45.2894C51.2397 45.2894 51.4144 45.3517 51.5481 45.4747C51.6817 45.5978 51.7486 45.774 51.7486 45.9988C51.7486 46.1978 51.6741 46.4317 51.5238 46.7006C51.3749 46.9649 51.147 47.2201 50.8432 47.4677C50.544 47.7092 50.1657 47.9113 49.707 48.0723C49.2528 48.2333 48.7303 48.3138 48.1379 48.3138C46.7829 48.3138 45.7287 47.9097 44.9768 47.1031C44.2249 46.2965 43.8481 45.2013 43.8481 43.819C43.8481 43.1674 43.9408 42.5658 44.1261 42.0114C44.3114 41.4524 44.5818 40.9724 44.9373 40.5744C45.2927 40.1764 45.7302 39.8726 46.2512 39.663C46.7722 39.4473 47.3495 39.3394 47.9829 39.3394C48.8077 39.3394 49.5141 39.5217 50.1004 39.8878C50.6928 40.2478 51.1364 40.7157 51.4296 41.2914C51.7227 41.8671 51.8701 42.4534 51.8701 43.0504C51.8701 43.6048 51.7182 43.9648 51.4144 44.1319C51.1151 44.2975 50.6868 44.378 50.1354 44.378ZM46.0082 43.1263H49.8346C49.7829 42.3729 49.587 41.8109 49.2468 41.4402C48.911 41.0635 48.469 40.8752 47.9176 40.8752C47.392 40.8752 46.9591 41.0665 46.6188 41.4478C46.2831 41.8245 46.0796 42.3835 46.0082 43.1263Z" fill="#202020"/>
<path d="M52.314 46.9771V37.421C52.314 36.9804 52.4066 36.6462 52.5919 36.4199C52.7833 36.1936 53.0385 36.0812 53.3575 36.0812C53.6765 36.0812 53.9348 36.1936 54.1307 36.4199C54.3267 36.6402 54.4239 36.9744 54.4239 37.421V46.9771C54.4239 47.4237 54.3236 47.7594 54.1231 47.9857C53.9272 48.206 53.672 48.3169 53.3575 48.3169C53.0476 48.3169 52.7955 48.2015 52.5995 47.9706C52.4096 47.7382 52.314 47.407 52.314 46.9771Z" fill="#202020"/>
<path d="M61.1208 47.3068L59.2569 44.1107L58.1131 45.2409V46.9923C58.1131 47.4176 58.0052 47.7458 57.788 47.9766C57.5769 48.203 57.3323 48.3154 57.0543 48.3154C56.7293 48.3154 56.4741 48.203 56.2887 47.9766C56.1034 47.7503 56.0107 47.4176 56.0107 46.9756V37.582C56.0107 37.0928 56.1004 36.7207 56.2811 36.4685C56.4619 36.2103 56.7186 36.0812 57.0543 36.0812C57.3794 36.0812 57.6361 36.1966 57.8275 36.4275C58.0189 36.6584 58.1131 37.0002 58.1131 37.4529V42.7953L60.4858 40.1962C60.779 39.8726 61.0038 39.6524 61.1587 39.5339C61.3137 39.4154 61.502 39.3562 61.7238 39.3562C61.9866 39.3562 62.2053 39.4443 62.3815 39.622C62.5562 39.7937 62.6443 40.0124 62.6443 40.2752C62.6443 40.5987 62.3587 41.0286 61.7861 41.5664L60.665 42.6403L62.8297 46.1918C62.9891 46.4561 63.1031 46.6566 63.1699 46.7964C63.2428 46.9316 63.2778 47.0607 63.2778 47.1837C63.2778 47.5331 63.1851 47.8111 62.9998 48.0146C62.819 48.2136 62.5805 48.3139 62.2813 48.3139C62.023 48.3139 61.8256 48.2409 61.6858 48.0966C61.5461 47.9523 61.3577 47.6895 61.1208 47.3068Z" fill="#202020"/>
<path d="M72.0829 43.8373C72.0829 44.4935 71.9857 45.0996 71.7897 45.6525C71.5938 46.2069 71.3097 46.6824 70.939 47.0804C70.5684 47.4783 70.1248 47.7852 69.6099 48.0009C69.095 48.2105 68.5147 48.3153 67.8706 48.3153C67.2311 48.3153 66.6569 48.2075 66.1466 47.9918C65.6362 47.7761 65.1926 47.4692 64.8174 47.0712C64.4468 46.6672 64.1627 46.1948 63.9667 45.651C63.7754 45.1026 63.6812 44.4965 63.6812 43.8357C63.6812 43.1689 63.7784 42.5582 63.9744 42.0038C64.1703 41.4493 64.4513 40.9754 64.8174 40.5835C65.1835 40.1901 65.6271 39.8893 66.1466 39.6797C66.6676 39.464 67.2418 39.3561 67.8706 39.3561C68.5101 39.3561 69.0889 39.464 69.6099 39.6797C70.1309 39.8954 70.576 40.2022 70.9466 40.6002C71.3173 40.9982 71.5983 41.4721 71.7897 42.0205C71.9857 42.5704 72.0829 43.175 72.0829 43.8373ZM69.9654 43.8373C69.9654 42.938 69.774 42.2392 69.3927 41.7395C69.016 41.2397 68.5086 40.9891 67.8691 40.9891C67.4575 40.9891 67.0929 41.1015 66.7785 41.3278C66.464 41.5481 66.2225 41.8762 66.0524 42.3122C65.8822 42.7481 65.7972 43.257 65.7972 43.8373C65.7972 44.413 65.8792 44.9158 66.0448 45.3472C66.2149 45.777 66.4549 46.1082 66.7633 46.3406C67.0777 46.5669 67.4468 46.6793 67.8691 46.6793C68.5086 46.6793 69.016 46.4287 69.3927 45.9289C69.774 45.4216 69.9654 44.7244 69.9654 43.8373Z" fill="#202020"/>
<path d="M80.5862 43.9982V46.9284C80.5862 47.3917 80.486 47.7381 80.2855 47.969C80.085 48.1999 79.8191 48.3153 79.4895 48.3153C79.1705 48.3153 78.9093 48.1999 78.7087 47.969C78.5128 47.7381 78.4155 47.3902 78.4155 46.9284V43.418C78.4155 42.8635 78.3973 42.4337 78.3609 42.1268C78.3244 41.82 78.2272 41.5693 78.0677 41.3764C77.9082 41.1774 77.6561 41.0772 77.3097 41.0772C76.6186 41.0772 76.1629 41.3248 75.9411 41.82C75.7254 42.3152 75.616 43.0246 75.616 43.9512V46.93C75.616 47.3872 75.5157 47.735 75.3152 47.9705C75.1193 48.2014 74.8595 48.3168 74.5345 48.3168C74.2155 48.3168 73.9527 48.2014 73.7461 47.9705C73.5456 47.7335 73.4453 47.3872 73.4453 46.93V40.626C73.4453 40.2113 73.5349 39.8969 73.7157 39.6812C73.901 39.4655 74.1441 39.3576 74.4418 39.3576C74.7304 39.3576 74.9704 39.4594 75.1603 39.6645C75.3562 39.8635 75.4535 40.1399 75.4535 40.4954V40.705C75.8195 40.2478 76.2114 39.9121 76.6292 39.6964C77.0469 39.4807 77.5102 39.3728 78.0206 39.3728C78.5508 39.3728 79.008 39.4837 79.3893 39.704C79.7705 39.9242 80.085 40.2584 80.3326 40.705C80.688 40.2523 81.0693 39.9197 81.4764 39.704C81.8835 39.4837 82.3346 39.3728 82.8298 39.3728C83.4071 39.3728 83.9038 39.4913 84.3215 39.7283C84.7393 39.9652 85.0506 40.304 85.2572 40.7445C85.438 41.1425 85.5276 41.7698 85.5276 42.625V46.9269C85.5276 47.3902 85.4274 47.7366 85.2269 47.9674C85.0263 48.1983 84.7605 48.3138 84.4309 48.3138C84.1119 48.3138 83.8491 48.1983 83.6425 47.9674C83.442 47.7305 83.3418 47.3841 83.3418 46.9269V43.222C83.3418 42.7481 83.3205 42.3699 83.2795 42.0843C83.243 41.7987 83.1397 41.5602 82.9696 41.3658C82.7995 41.1714 82.5412 41.0756 82.1964 41.0756C81.9184 41.0756 81.6526 41.1622 81.4004 41.3339C81.1528 41.5055 80.9599 41.7379 80.8202 42.0281C80.6637 42.4002 80.5862 43.0565 80.5862 43.9982Z" fill="#202020"/>
</svg>
