<svg width="84" height="57" viewBox="0 0 84 57" fill="none" xmlns="http://www.w3.org/2000/svg">
<path d="M60.2821 14.5837C59.3608 14.5837 58.4874 14.7558 57.688 15.0694C58.7618 18.4041 60.9312 21.521 63.9631 23.6686C64.5599 24.0955 65.2133 24.4723 65.9016 24.8077C66.6661 23.7535 67.117 22.475 67.117 21.0962C67.1148 17.5002 64.0546 14.5837 60.2821 14.5837Z" fill="#ED3024"/>
<path d="M75.954 18.1296C78.4632 16.2085 84.7949 12.0548 83.8126 10.369C83.0197 9.00986 79.5566 10.6522 75.6491 12.778C72.5779 14.4529 73.2423 12.4295 75.1917 9.47815C76.9124 6.87968 79.4978 3.37295 78.058 2.42329C76.3787 1.319 71.2362 7.43292 70.0339 8.63959C68.8338 9.84625 67.7339 10.4953 68.3372 7.1367C69.1453 2.66942 69.3043 0.336676 68.3002 0.0535234C66.8953 -0.340712 66.0175 1.41265 63.9135 6.31991C62.4062 9.84189 61.0906 10.467 60.9273 7.30659C60.716 1.62829 59.2741 2.93079 58.7187 3.80421C57.1962 6.20229 56.6778 9.11005 57.0198 12.0265C58.2177 11.5691 59.5268 11.3186 60.8968 11.3186C66.7602 11.3186 71.5128 15.8992 71.5128 21.5448C71.5128 23.2416 71.0838 24.8381 70.3236 26.243C73.6713 26.855 77.1977 26.561 79.8571 25.2389C80.2993 25.0189 81.3731 24.3611 80.7044 23.4507C79.3692 21.6319 76.9603 22.5859 74.3858 21.841C72.1293 21.1833 74.144 19.5148 75.954 18.1296Z" fill="#ED3024"/>
<path d="M65.8989 24.8077C64.6618 26.5023 62.6078 27.6131 60.2816 27.6131C56.507 27.6131 53.4467 24.6945 53.4467 21.0941C53.4467 18.3715 55.2001 16.0431 57.6875 15.0695C57.3651 14.0653 57.1386 13.046 57.021 12.0245C53.0721 13.5165 50.2798 17.2127 50.2798 21.5428C50.2798 27.1928 55.0346 31.7755 60.9002 31.7755C65.0037 31.7755 68.5627 29.5255 70.3292 26.2409C68.7784 25.9534 67.2668 25.4721 65.8989 24.8077Z" fill="#6D6E70"/>
<path d="M8.78304 22.2418C8.78304 21.8367 8.43237 21.4991 8.01635 21.4991H1.06822C0.656562 21.4991 0.303711 21.8367 0.303711 22.2418C0.303711 22.6426 0.645671 22.9737 1.06822 22.9737H3.73422V30.9564C3.73422 31.392 4.09796 31.7471 4.54229 31.7471C4.99098 31.7471 5.35036 31.392 5.35036 30.9564V22.9737H8.01418C8.43891 22.9737 8.78304 22.6426 8.78304 22.2418Z" fill="#231F20"/>
<path d="M11.1027 23.8862C8.97905 23.8862 7.31934 25.6265 7.31934 27.8482V27.8787C7.31934 30.1374 9.00954 31.8406 11.2464 31.8406C12.4357 31.8406 13.3461 31.4856 14.1978 30.6928C14.3524 30.5599 14.4439 30.377 14.4439 30.1788C14.4439 29.7998 14.1194 29.4927 13.7186 29.4927C13.5531 29.4927 13.4006 29.5493 13.2503 29.6713C12.6557 30.2049 12.0284 30.4488 11.2748 30.4488C10.0572 30.4488 9.16636 29.6865 8.94638 28.4842H14.0192C14.4374 28.4842 14.7728 28.1553 14.7728 27.7524C14.7706 25.8291 13.5095 23.8862 11.1027 23.8862ZM11.0722 25.2497C12.3834 25.2497 12.9998 26.232 13.161 27.2274H8.94202C9.16201 26.0513 10.0093 25.2497 11.0722 25.2497Z" fill="#231F20"/>
<path d="M16.548 21.0155C16.1146 21.0155 15.7661 21.3596 15.7661 21.7843V30.9737C15.7661 31.405 16.1146 31.747 16.5611 31.747C17.0055 31.747 17.3431 31.4115 17.3431 30.9737V21.7843C17.3431 21.3596 16.9858 21.0155 16.548 21.0155Z" fill="#231F20"/>
<path d="M22.8118 27.4365L25.0705 25.2802C25.223 25.1343 25.358 24.9644 25.358 24.6986C25.358 24.2913 25.0335 23.9668 24.6197 23.9668C24.3866 23.9668 24.1949 24.0583 24.0141 24.2499L20.4268 27.7981V21.7843C20.4268 21.3596 20.0696 21.0155 19.634 21.0155C19.2049 21.0155 18.8521 21.3596 18.8521 21.7843V30.9737C18.8521 31.405 19.2027 31.747 19.6492 31.747C20.0936 31.747 20.4268 31.4115 20.4268 30.9737V29.6908L21.6966 28.4711L24.0904 31.405C24.2755 31.6424 24.4737 31.7448 24.7503 31.7448C25.186 31.7448 25.517 31.4268 25.517 31.0108C25.517 30.8234 25.4626 30.6819 25.3232 30.5076L22.8118 27.4365Z" fill="#231F20"/>
<path d="M29.7381 23.8862C27.4402 23.8862 25.6411 25.6331 25.6411 27.8634V27.8939C25.6411 30.1091 27.4272 31.8428 29.7076 31.8428C32.0121 31.8428 33.8199 30.0982 33.8199 27.8634V27.8373C33.8199 25.62 32.0251 23.8862 29.7381 23.8862ZM27.2442 27.8373C27.2442 26.3867 28.3071 25.2889 29.7098 25.2889C31.1147 25.2889 32.219 26.4215 32.219 27.8613V27.8918C32.219 29.3315 31.1495 30.4205 29.7403 30.4205C28.3441 30.4205 27.2464 29.2988 27.2464 27.8634V27.8373H27.2442Z" fill="#231F20"/>
<path d="M43.4586 23.8862C42.3913 23.8862 41.5419 24.2892 40.8841 25.1147C40.357 24.3197 39.5206 23.8862 38.4882 23.8862C37.4601 23.8862 36.8002 24.3066 36.3406 24.7967V24.74C36.3406 24.3088 35.9877 23.969 35.5434 23.969C35.1099 23.969 34.7593 24.3131 34.7593 24.74V30.9738C34.7593 31.405 35.11 31.747 35.5565 31.747C36.003 31.747 36.3406 31.4116 36.3406 30.9738V27.3538C36.3406 26.1754 37.1029 25.3194 38.1571 25.3194C39.2157 25.3194 39.8234 26.0142 39.8234 27.2253V30.9738C39.8234 31.405 40.1631 31.747 40.6031 31.747C41.0474 31.747 41.3981 31.4072 41.3981 30.9738V27.308C41.3981 26.1188 42.1191 25.3194 43.1885 25.3194C44.271 25.3194 44.8678 26.0055 44.8678 27.2557V30.9759C44.8678 31.4072 45.2185 31.7492 45.6628 31.7492C46.0985 31.7492 46.4448 31.4094 46.4448 30.9759V27.0031C46.4448 25.0777 45.3013 23.8862 43.4586 23.8862Z" fill="#231F20"/>
<path d="M8.02703 34.18C7.63061 34.18 7.29736 34.5111 7.29736 34.9031V43.7223C7.29736 44.11 7.63061 44.4432 8.02703 44.4432C8.43869 44.4432 8.77194 44.1187 8.77194 43.7223V34.9031C8.77194 34.5045 8.43651 34.18 8.02703 34.18Z" fill="#231F20"/>
<path d="M14.4573 36.6564C13.4706 36.6564 12.6712 37.0158 12.0745 37.7215V37.4492C12.0745 37.0528 11.7564 36.7435 11.347 36.7435C10.9527 36.7435 10.6304 37.0593 10.6304 37.4492V43.7374C10.6304 44.136 10.9527 44.4453 11.3622 44.4453C11.7652 44.4453 12.0766 44.1403 12.0766 43.7374V40.0673C12.0766 38.828 12.9283 37.9611 14.1436 37.9611C15.3503 37.9611 16.0386 38.6973 16.0386 39.9823V43.7374C16.0386 44.136 16.3609 44.4453 16.7704 44.4453C17.1712 44.4453 17.4848 44.1382 17.4848 43.7374V39.7188C17.4805 37.8587 16.2956 36.6564 14.4573 36.6564Z" fill="#231F20"/>
<path d="M25.6347 33.7574C25.2296 33.7574 24.9181 34.0645 24.9181 34.4631V37.8827C24.2037 37.0681 23.2976 36.6564 22.2304 36.6564C20.4225 36.6564 18.5015 38.033 18.5015 40.5879V40.6162C18.5015 43.1581 20.4225 44.5302 22.2304 44.5302C23.3042 44.5302 24.1885 44.1099 24.9181 43.2452V43.7396C24.9181 44.1382 25.2405 44.4475 25.6478 44.4475C26.0508 44.4475 26.3622 44.1404 26.3622 43.7396V34.4631C26.3644 34.071 26.0464 33.7574 25.6347 33.7574ZM24.9639 40.5726V40.6031C24.9639 42.228 23.6505 43.2386 22.4308 43.2386C21.0324 43.2386 19.9739 42.1039 19.9739 40.6031V40.5726C19.9739 39.0262 20.9889 37.948 22.4308 37.948C23.6788 37.948 24.9639 38.9282 24.9639 40.5726Z" fill="#231F20"/>
<path d="M31.5356 36.6564C29.2573 36.6564 27.4756 38.388 27.4756 40.6031V40.6293C27.4756 42.8226 29.2464 44.5411 31.5072 44.5411C33.7855 44.5411 35.5803 42.8095 35.5803 40.6031V40.5726C35.5803 38.3771 33.803 36.6564 31.5356 36.6564ZM28.9458 40.5726C28.9458 39.0697 30.0479 37.9349 31.5072 37.9349C32.9644 37.9349 34.1057 39.1046 34.1057 40.6031V40.6293C34.1057 42.1212 33.0014 43.2517 31.5356 43.2517C30.0849 43.2517 28.9458 42.0864 28.9458 40.6031V40.5726Z" fill="#231F20"/>
<path d="M40.5029 36.6564C39.5184 36.6564 38.7191 37.0158 38.1179 37.7215V37.4492C38.1179 37.0528 37.7999 36.7435 37.3882 36.7435C36.994 36.7435 36.6738 37.0593 36.6738 37.4492V43.7374C36.6738 44.136 36.994 44.4453 37.4057 44.4453C37.8152 44.4453 38.1179 44.1403 38.1179 43.7374V40.0673C38.1179 38.828 38.9695 37.9611 40.1893 37.9611C41.3916 37.9611 42.082 38.6973 42.082 39.9823V43.7374C42.082 44.136 42.4022 44.4453 42.8095 44.4453C43.2125 44.4453 43.5239 44.1382 43.5239 43.7374V39.7188C43.5283 37.8587 42.3391 36.6564 40.5029 36.6564Z" fill="#231F20"/>
<path d="M48.2635 36.6564C46.166 36.6564 44.5215 38.3858 44.5215 40.5879V40.6162C44.5215 42.8553 46.1899 44.5433 48.4072 44.5433C49.5877 44.5433 50.4895 44.197 51.3346 43.4063C51.4762 43.2822 51.5589 43.1166 51.5589 42.938C51.5589 42.5939 51.2671 42.3151 50.899 42.3151C50.753 42.3151 50.6158 42.3652 50.4786 42.4763C49.8644 43.0273 49.2153 43.28 48.4334 43.28C47.1592 43.28 46.203 42.4349 45.9982 41.1542H51.2039C51.5807 41.1542 51.89 40.8558 51.89 40.4877C51.8922 38.584 50.6485 36.6564 48.2635 36.6564ZM46.0004 40.0346C46.2008 38.7626 47.0982 37.8957 48.2351 37.8957C49.6378 37.8957 50.2804 38.9652 50.4307 40.0346H46.0004Z" fill="#231F20"/>
<path d="M55.887 39.9258L55.8587 39.9193C54.9461 39.6492 54.0879 39.3965 54.0879 38.8346V38.8084C54.0879 38.2813 54.5997 37.922 55.3621 37.922C55.9458 37.922 56.5883 38.1093 57.2265 38.4599C57.2919 38.4904 57.4073 38.5362 57.5554 38.5362C57.9213 38.5362 58.211 38.2574 58.211 37.9154C58.211 37.6758 58.0803 37.4602 57.856 37.3273C57.0762 36.9178 56.1854 36.6891 55.3926 36.6891C53.7982 36.6891 52.6852 37.6083 52.6852 38.9217V38.95C52.6852 40.4355 54.1815 40.8493 55.2706 41.1477C56.2594 41.4178 57.0087 41.6705 57.0087 42.2673V42.2956C57.0087 42.888 56.4577 43.2823 55.6343 43.2823C54.8764 43.2823 54.1097 43.034 53.3647 42.5395C53.2776 42.4698 53.1404 42.4263 52.9945 42.4263C52.6351 42.4263 52.3389 42.7051 52.3389 43.0514C52.3389 43.2975 52.4804 43.4848 52.6133 43.5763C53.4584 44.1644 54.5627 44.5129 55.5755 44.5129C57.2635 44.5129 58.3983 43.5785 58.3983 42.1801V42.1562C58.3962 40.6576 56.8846 40.2177 55.887 39.9258Z" fill="#231F20"/>
<path d="M60.3663 36.7435C59.972 36.7435 59.6519 37.0594 59.6519 37.4492V43.7374C59.6519 44.136 59.972 44.4453 60.3793 44.4453C60.7867 44.4453 61.0959 44.1404 61.0959 43.7374V37.4492C61.0959 37.0528 60.7736 36.7435 60.3663 36.7435Z" fill="#231F20"/>
<path d="M68.2689 37.5604C67.6917 37.0006 66.8422 36.7131 65.7423 36.7131C64.8384 36.7131 64.0717 36.8656 63.2396 37.2163C63.0501 37.2903 62.8389 37.5103 62.8389 37.8131C62.8389 38.1507 63.1351 38.4382 63.4945 38.4382C63.5772 38.4382 63.6687 38.4164 63.758 38.3859C64.3701 38.118 64.9799 37.9895 65.629 37.9895C66.5656 37.9895 67.6764 38.3053 67.6764 39.8017V39.8431C67.1297 39.7015 66.4806 39.586 65.5571 39.586C63.4879 39.586 62.2007 40.5422 62.2007 42.0843V42.117C62.2007 43.7005 63.6861 44.5303 65.152 44.5303C66.3674 44.5303 67.1689 44.0533 67.6764 43.5545V43.7811C67.6764 44.1644 67.9814 44.4497 68.3821 44.4497C68.7829 44.4497 69.0791 44.1492 69.0791 43.7549V39.7951C69.0813 38.8324 68.809 38.0831 68.2689 37.5604ZM67.6982 40.9757V41.5507C67.6982 42.5766 66.6963 43.352 65.3676 43.352C64.5465 43.352 63.6622 42.9468 63.6622 42.0691V42.0429C63.6622 41.2044 64.4115 40.7056 65.6704 40.7056C66.3521 40.7056 67.0165 40.7949 67.6982 40.9757Z" fill="#231F20"/>
<path d="M0.817704 56.1895C0.377729 56.1895 0.105469 55.9652 0.105469 55.6014C0.105469 55.5099 0.118536 55.4032 0.144673 55.303L0.556333 53.7631H0.179523L0.299319 53.3144H0.682663L0.900473 52.4889H1.39926L1.17709 53.3144H2.03744L1.91982 53.7631H1.05947L0.643459 55.3052C0.632569 55.3858 0.628211 55.4511 0.628211 55.4925C0.628211 55.6493 0.737116 55.7299 0.954926 55.7299C1.07036 55.7299 1.19016 55.7038 1.33609 55.6472L1.42322 55.6145L1.28817 56.0959L1.2664 56.1046C1.11828 56.1612 0.978884 56.1895 0.817704 56.1895Z" fill="#231F20"/>
<path d="M4.36551 56.1395H3.86237L4.29363 54.5299C4.31759 54.4449 4.33284 54.3251 4.33284 54.2358C4.33284 53.9069 4.12156 53.7109 3.76653 53.7109C3.35487 53.7109 2.95846 54.0681 2.82342 54.5582L2.40087 56.1373H1.8999L1.91515 56.0785L2.95846 52.1841H3.45724L3.07172 53.6347C3.27428 53.4365 3.54655 53.2535 3.92989 53.2535C4.48748 53.2535 4.84905 53.602 4.84905 54.1443C4.84905 54.2859 4.80984 54.4515 4.77717 54.58L4.36551 56.1395Z" fill="#231F20"/>
<path d="M6.57441 56.2027C5.82296 56.2027 5.31982 55.717 5.31982 54.9939C5.31982 54.1727 5.99068 53.2579 6.95557 53.2579C7.71791 53.2579 8.05987 53.8068 8.05987 54.3492C8.05987 54.5321 8.02502 54.7173 7.95532 54.9002L7.94443 54.9307H5.81643C5.81425 54.946 5.81425 54.9612 5.81425 54.9786C5.81425 55.4513 6.12136 55.7584 6.59401 55.7584C6.96646 55.7584 7.20605 55.6103 7.40644 55.4491L7.44347 55.4208L7.71355 55.7584L7.6787 55.7867C7.44347 55.9784 7.10804 56.2027 6.57441 56.2027ZM5.89702 54.5082H7.55455C7.56109 54.4668 7.56762 54.4167 7.56762 54.3492C7.56762 54.0312 7.39991 53.6914 6.93379 53.6914C6.47204 53.6914 6.07127 54.0094 5.89702 54.5082Z" fill="#231F20"/>
<path d="M12.7477 56.1614H12.3186L12.1683 54.1053L10.9159 56.1614H10.489L10.2646 53.3146H10.7765L10.9094 55.386L12.1661 53.3059H12.5756L12.7194 55.3882L13.9718 53.3146H14.5076L12.7477 56.1614Z" fill="#231F20"/>
<path d="M15.714 56.2027C14.956 56.2027 14.4268 55.6778 14.4268 54.9285C14.4268 54.0377 15.1978 53.2579 16.0799 53.2579C16.8401 53.2579 17.3694 53.7785 17.3694 54.5234C17.3694 55.4186 16.5961 56.2027 15.714 56.2027ZM16.0516 53.7066C15.4635 53.7066 14.9277 54.286 14.9277 54.9198C14.9277 55.4295 15.2392 55.7453 15.738 55.7453C16.3261 55.7453 16.8619 55.1703 16.8619 54.5365C16.864 54.0246 16.5526 53.7066 16.0516 53.7066Z" fill="#231F20"/>
<path d="M18.1182 56.1396H17.6172L18.3686 53.3168H18.8718L18.7302 53.8657C19.0591 53.4693 19.4337 53.2689 19.8454 53.2689C19.8737 53.2689 19.902 53.2711 19.9325 53.2711L19.9891 53.2754L19.8519 53.8025H19.7866C19.1506 53.8025 18.6148 54.2839 18.4187 55.0288L18.1182 56.1396Z" fill="#231F20"/>
<path d="M20.2793 56.1395H19.7783L20.8391 52.1862H21.34L21.3248 52.245L20.2793 56.1395Z" fill="#231F20"/>
<path d="M22.4549 56.2026C21.8015 56.2026 21.3267 55.6972 21.3267 55.0003C21.3267 54.055 22.0498 53.2578 22.9036 53.2578C23.4895 53.2578 23.7792 53.5867 23.9164 53.8459L24.3586 52.1883H24.8617L23.8075 56.1394H23.3022L23.3959 55.7931C23.1083 56.0675 22.7991 56.2026 22.4549 56.2026ZM22.9385 53.7065C22.3351 53.7065 21.8429 54.2706 21.8429 54.9611C21.8429 55.4315 22.1347 55.7495 22.5704 55.7495C23.1606 55.7495 23.74 55.1331 23.74 54.5058C23.7422 54.0441 23.4046 53.7065 22.9385 53.7065Z" fill="#231F20"/>
<path d="M26.7373 56.1396H26.2407L26.9987 53.3168H27.4997L26.7373 56.1396ZM27.6652 52.8093H27.1032L27.2514 52.2648H27.8111L27.6652 52.8093Z" fill="#231F20"/>
<path d="M30.062 56.1396H29.5611L29.9901 54.53C30.0119 54.445 30.0272 54.3252 30.0272 54.2359C30.0272 53.9027 29.8203 53.711 29.4609 53.711C29.0492 53.711 28.6528 54.0682 28.5177 54.5583L28.0974 56.1374H27.5942L28.3457 53.3146H28.851L28.7639 53.637C28.9752 53.4322 29.2431 53.2558 29.6264 53.2558C30.1818 53.2558 30.5412 53.6043 30.5412 54.1466C30.5412 54.2817 30.5042 54.4407 30.4715 54.5801L30.062 56.1396Z" fill="#231F20"/>
<path d="M32.5921 57C32.3655 57 32.1673 56.9369 31.9669 56.8018L31.9277 56.7757L32.2109 56.3923L32.2479 56.4228C32.3329 56.4903 32.5071 56.547 32.6378 56.547C32.8665 56.547 33.0603 56.4097 33.2999 56.0765L32.7946 53.3147H33.313L33.6833 55.5124L35.0969 53.3147H35.6697L33.753 56.2072C33.3696 56.7713 33.0342 57 32.5921 57Z" fill="#231F20"/>
<path d="M36.8241 56.2027C36.0639 56.2027 35.5347 55.6778 35.5347 54.9285C35.5347 54.0377 36.3079 53.2579 37.1878 53.2579C37.9502 53.2579 38.4816 53.7785 38.4816 54.5234C38.4816 55.4186 37.7062 56.2027 36.8241 56.2027ZM37.1617 53.7066C36.5758 53.7066 36.04 54.286 36.04 54.9198C36.04 55.4295 36.3514 55.7453 36.8502 55.7453C37.4361 55.7453 37.972 55.1703 37.972 54.5365C37.972 54.0246 37.6605 53.7066 37.1617 53.7066Z" fill="#231F20"/>
<path d="M39.8692 56.1963C39.3138 56.1963 38.9565 55.8456 38.9565 55.3033C38.9565 55.1922 38.9783 55.0506 39.0262 54.8698L39.4379 53.3147H39.9389L39.5054 54.9199C39.4858 55.0136 39.4706 55.1356 39.4706 55.2118C39.4706 55.5429 39.6797 55.7411 40.0325 55.7411C40.4442 55.7411 40.8493 55.373 40.9735 54.8851L41.4004 53.3147H41.9013L41.1455 56.1375H40.6446L40.7317 55.8108C40.5291 56.0112 40.2547 56.1963 39.8692 56.1963Z" fill="#231F20"/>
<path d="M42.467 56.1397H41.9639L42.7175 53.3169H43.2185L43.0769 53.8636C43.4276 53.4388 43.8261 53.2406 44.277 53.2689L44.3336 53.2733L44.1942 53.8004H44.1311C43.4973 53.8004 42.9593 54.2818 42.7632 55.0267L42.467 56.1397Z" fill="#231F20"/>
<path d="M48.1448 56.1395H47.6417L48.0686 54.5299C48.0947 54.4493 48.1121 54.3317 48.1121 54.2358C48.1121 53.9069 47.8987 53.7109 47.5437 53.7109C47.132 53.7109 46.7356 54.0681 46.6005 54.5582L46.1802 56.1373H45.6792L45.6944 56.0785L46.7378 52.1841H47.2387L46.8488 53.6347C47.0579 53.4299 47.3258 53.2535 47.7092 53.2535C48.269 53.2535 48.6305 53.602 48.6305 54.1443C48.6305 54.2837 48.5935 54.4493 48.5608 54.58L48.1448 56.1395Z" fill="#231F20"/>
<path d="M49.8465 56.1962C49.3129 56.1962 48.9404 55.8673 48.9404 55.3946C48.9404 54.776 49.4479 54.36 50.2037 54.36C50.4869 54.36 50.794 54.4058 51.1381 54.4994L51.1447 54.4755C51.1621 54.3992 51.1752 54.3012 51.1752 54.238C51.1752 53.8198 50.8005 53.7305 50.4869 53.7305C50.2342 53.7305 50.0077 53.7741 49.7289 53.8743L49.6788 53.8917L49.5895 53.4583L49.6265 53.443C49.9293 53.3254 50.2146 53.2731 50.5479 53.2731C51.2492 53.2731 51.6674 53.6064 51.6674 54.1662C51.6674 54.2729 51.6478 54.4101 51.6151 54.5517L51.1926 56.1374H50.6938L50.7766 55.8237C50.5152 56.072 50.2015 56.1962 49.8465 56.1962ZM50.2168 54.7543C49.7659 54.7543 49.4501 54.9982 49.4501 55.3489C49.4501 55.6146 49.6527 55.7801 49.9772 55.7801C50.439 55.7801 50.8811 55.4491 51.0053 55.0091L51.0445 54.861C50.8463 54.8109 50.5544 54.7543 50.2168 54.7543Z" fill="#231F20"/>
<path d="M54.4273 56.1395H53.9263L54.3554 54.5299C54.3794 54.4494 54.3946 54.3295 54.3946 54.2359C54.3946 53.907 54.1833 53.711 53.8283 53.711C53.421 53.711 53.0224 54.0682 52.883 54.5604L52.4648 56.1395H51.9639L52.7153 53.3167H53.2163L53.1313 53.6391C53.3361 53.4409 53.6083 53.2579 53.9895 53.2579C54.5471 53.2579 54.9087 53.6064 54.9087 54.1488C54.9087 54.262 54.8869 54.4014 54.839 54.5844L54.4273 56.1395Z" fill="#231F20"/>
<path d="M56.5186 56.2026C55.8652 56.2026 55.3882 55.6972 55.3882 55.0003C55.3882 54.055 56.1113 53.2578 56.9673 53.2578C57.4225 53.2578 57.7797 53.4647 57.9801 53.848L58.4245 52.1883H58.9211L57.8647 56.1394H57.3681L57.4596 55.7887C57.1742 56.0675 56.8649 56.2026 56.5186 56.2026ZM57.0065 53.7065C56.4032 53.7065 55.9109 54.2706 55.9109 54.9611C55.9109 55.4402 56.1963 55.7495 56.6341 55.7495C57.2243 55.7495 57.8059 55.1331 57.8059 54.5058C57.8059 54.0441 57.4704 53.7065 57.0065 53.7065Z" fill="#231F20"/>
</svg>
