<svg width="24" height="25" viewBox="0 0 24 25" fill="none" xmlns="http://www.w3.org/2000/svg">
<path d="M17 3.93945H7C4 3.93945 2 5.43945 2 8.93945V15.9395C2 19.4395 4 20.9395 7 20.9395H17C20 20.9395 22 19.4395 22 15.9395V8.93945C22 5.43945 20 3.93945 17 3.93945ZM17.47 10.0295L14.34 12.5295C13.68 13.0595 12.84 13.3195 12 13.3195C11.16 13.3195 10.31 13.0595 9.66 12.5295L6.53 10.0295C6.21 9.76945 6.16 9.28945 6.41 8.96945C6.67 8.64945 7.14 8.58945 7.46 8.84945L10.59 11.3495C11.35 11.9595 12.64 11.9595 13.4 11.3495L16.53 8.84945C16.85 8.58945 17.33 8.63945 17.58 8.96945C17.84 9.28945 17.79 9.76945 17.47 10.0295Z" fill="white"/>
</svg>
