<svg width="439" height="560" viewBox="0 0 439 560" fill="none" xmlns="http://www.w3.org/2000/svg">
<g opacity="0.46">
<path d="M159.071 167.73C173.312 169.708 201.679 181.258 201.204 211.637C186.964 209.659 158.597 198.109 159.071 167.73Z" stroke="#C10007" stroke-width="1.18667"/>
<path d="M147.193 167.731C132.953 169.708 104.585 181.259 105.06 211.638C119.3 209.66 147.667 198.109 147.193 167.731Z" stroke="#C10007" stroke-width="1.18667"/>
<path d="M159.071 159.424C173.312 157.446 201.679 145.896 201.204 115.517C186.964 117.495 158.597 129.045 159.071 159.424Z" stroke="#C10007" stroke-width="1.18667"/>
<path d="M147.193 159.424C132.953 157.446 104.585 145.895 105.06 115.517C119.3 117.495 147.667 129.045 147.193 159.424Z" stroke="#C10007" stroke-width="1.18667"/>
<circle cx="114.548" cy="164.17" r="7.71336" stroke="#C10007" stroke-width="1.18667"/>
<circle cx="192.868" cy="164.17" r="7.71336" stroke="#C10007" stroke-width="1.18667"/>
<circle cx="153.708" cy="125.01" r="7.71336" transform="rotate(90 153.708 125.01)" stroke="#C10007" stroke-width="1.18667"/>
<circle cx="153.708" cy="203.331" r="7.71336" transform="rotate(90 153.708 203.331)" stroke="#C10007" stroke-width="1.18667"/>
<path d="M263.16 167.731C277.4 169.708 305.768 181.259 305.293 211.637C291.053 209.66 262.686 198.109 263.16 167.731Z" fill="#C10007"/>
<path d="M251.282 167.731C237.042 169.709 208.675 181.259 209.149 211.638C223.389 209.66 251.757 198.11 251.282 167.731Z" fill="#C10007"/>
<path d="M263.16 159.424C277.4 157.446 305.768 145.896 305.293 115.517C291.053 117.495 262.686 129.045 263.16 159.424Z" fill="#C10007"/>
<path d="M251.282 159.424C237.042 157.446 208.675 145.896 209.149 115.517C223.389 117.495 251.757 129.045 251.282 159.424Z" fill="#C10007"/>
<circle cx="218.638" cy="164.171" r="8.3067" fill="#C10007"/>
<circle cx="296.958" cy="164.171" r="8.3067" fill="#C10007"/>
<circle cx="257.798" cy="125.01" r="8.3067" transform="rotate(90 257.798 125.01)" fill="#C10007"/>
<circle cx="257.798" cy="203.331" r="8.3067" transform="rotate(90 257.798 203.331)" fill="#C10007"/>
<path d="M367.25 167.73C381.49 169.708 409.857 181.258 409.383 211.637C395.143 209.659 366.776 198.109 367.25 167.73Z" fill="#C10007"/>
<path d="M355.372 167.731C341.132 169.708 312.765 181.259 313.239 211.637C327.479 209.66 355.847 198.109 355.372 167.731Z" fill="#C10007"/>
<path d="M367.25 159.424C381.49 157.446 409.857 145.896 409.383 115.517C395.143 117.495 366.776 129.045 367.25 159.424Z" fill="#C10007"/>
<path d="M355.372 159.423C341.132 157.445 312.765 145.895 313.239 115.516C327.479 117.494 355.847 129.044 355.372 159.423Z" fill="#C10007"/>
<circle cx="322.727" cy="164.17" r="8.3067" fill="#C10007"/>
<circle cx="401.047" cy="164.17" r="8.3067" fill="#C10007"/>
<circle cx="361.887" cy="125.01" r="8.3067" transform="rotate(90 361.887 125.01)" fill="#C10007"/>
<circle cx="361.887" cy="203.33" r="8.3067" transform="rotate(90 361.887 203.33)" fill="#C10007"/>
<path d="M159.071 283.851C173.312 285.829 201.679 297.379 201.204 327.758C186.964 325.78 158.597 314.23 159.071 283.851Z" stroke="#C10007" stroke-width="1.18667"/>
<path d="M147.193 283.852C132.953 285.829 104.585 297.38 105.06 327.758C119.3 325.781 147.667 314.23 147.193 283.852Z" stroke="#C10007" stroke-width="1.18667"/>
<path d="M159.071 275.545C173.312 273.567 201.679 262.017 201.204 231.638C186.964 233.616 158.597 245.166 159.071 275.545Z" stroke="#C10007" stroke-width="1.18667"/>
<path d="M147.193 275.544C132.953 273.567 104.585 262.016 105.06 231.638C119.3 233.615 147.667 245.166 147.193 275.544Z" stroke="#C10007" stroke-width="1.18667"/>
<circle cx="114.548" cy="280.291" r="7.71336" stroke="#C10007" stroke-width="1.18667"/>
<circle cx="192.868" cy="280.291" r="7.71336" stroke="#C10007" stroke-width="1.18667"/>
<circle cx="153.707" cy="241.131" r="7.71336" transform="rotate(90 153.707 241.131)" stroke="#C10007" stroke-width="1.18667"/>
<circle cx="153.707" cy="319.451" r="7.71336" transform="rotate(90 153.707 319.451)" stroke="#C10007" stroke-width="1.18667"/>
<path fill-rule="evenodd" clip-rule="evenodd" d="M228.403 326.302H254.553V289.807C254.553 275.024 237.873 269.145 226.348 270.22C226.348 270.22 228.403 273.126 228.403 275.885V326.302Z" fill="#C10007"/>
<path fill-rule="evenodd" clip-rule="evenodd" d="M286.095 269.313C281.678 269.313 271.014 271.123 265.867 278.579C267.171 285.127 275.95 290.166 281.414 291.049C294.56 293.154 303.42 297.098 300.165 307.598L306.987 297.098V288.287C306.983 271.402 290.516 269.313 286.095 269.313Z" fill="#C10007"/>
<path fill-rule="evenodd" clip-rule="evenodd" d="M306.981 231.708C306.981 231.708 300.656 233.175 284.45 233.175C269.176 233.175 263.992 236.141 258.069 240.857V272.13C264.58 263.461 273.135 260.907 284.45 260.907H293.763C301.036 260.907 306.981 259.653 306.981 259.653V231.708Z" fill="#C10007"/>
<path fill-rule="evenodd" clip-rule="evenodd" d="M209.147 231.708C209.147 231.708 215.472 233.175 231.694 233.175C246.945 233.175 252.136 236.141 258.074 240.857V272.13C251.529 263.461 243.008 260.907 231.694 260.907H222.384C215.088 260.907 209.144 259.653 209.144 259.653V231.708H209.147Z" fill="#C10007"/>
<path fill-rule="evenodd" clip-rule="evenodd" d="M306.98 319.863C306.98 319.863 302.908 327.758 285.932 327.758C275.164 327.758 267.605 324.83 263.844 322.272V290.984C272.245 299.11 282.372 300.014 285.932 300.014C302.28 300.014 306.98 286.394 306.98 286.394V319.863Z" fill="#C10007"/>
<path d="M368.938 283.851C383.178 285.829 411.545 297.379 411.07 327.758C396.83 325.78 368.463 314.23 368.938 283.851Z" fill="#C10007"/>
<path d="M357.059 283.852C342.819 285.829 314.452 297.38 314.927 327.758C329.167 325.781 357.534 314.23 357.059 283.852Z" fill="#C10007"/>
<path d="M368.938 275.545C383.178 273.567 411.545 262.017 411.07 231.638C396.83 233.616 368.463 245.166 368.938 275.545Z" fill="#C10007"/>
<path d="M357.059 275.544C342.819 273.567 314.452 262.016 314.927 231.638C329.167 233.615 357.534 245.166 357.059 275.544Z" fill="#C10007"/>
<circle cx="324.414" cy="280.291" r="8.3067" fill="#C10007"/>
<circle cx="402.733" cy="280.291" r="8.3067" fill="#C10007"/>
<circle cx="363.574" cy="241.131" r="8.3067" transform="rotate(90 363.574 241.131)" fill="#C10007"/>
<circle cx="363.574" cy="319.451" r="8.3067" transform="rotate(90 363.574 319.451)" fill="#C10007"/>
<path d="M55.0168 399.972C69.2568 401.95 97.6241 413.5 97.1494 443.879C82.9093 441.901 54.5421 430.351 55.0168 399.972Z" stroke="#C10007" stroke-width="1.18667"/>
<path d="M43.1385 399.973C28.8984 401.95 0.531215 413.501 1.00588 443.879C15.2459 441.902 43.6132 430.351 43.1385 399.973Z" stroke="#C10007" stroke-width="1.18667"/>
<path d="M55.0168 391.665C69.2568 389.688 97.6241 378.137 97.1494 347.759C82.9093 349.736 54.5421 361.287 55.0168 391.665Z" stroke="#C10007" stroke-width="1.18667"/>
<path d="M43.1385 391.665C28.8984 389.687 0.531215 378.137 1.00588 347.758C15.2459 349.736 43.6132 361.286 43.1385 391.665Z" stroke="#C10007" stroke-width="1.18667"/>
<circle cx="10.4932" cy="396.412" r="7.71336" stroke="#C10007" stroke-width="1.18667"/>
<circle cx="88.8135" cy="396.412" r="7.71336" stroke="#C10007" stroke-width="1.18667"/>
<circle cx="49.6538" cy="357.252" r="7.71336" transform="rotate(90 49.6538 357.252)" stroke="#C10007" stroke-width="1.18667"/>
<circle cx="49.6538" cy="435.572" r="7.71336" transform="rotate(90 49.6538 435.572)" stroke="#C10007" stroke-width="1.18667"/>
<path fill-rule="evenodd" clip-rule="evenodd" d="M124.348 442.423H150.499V405.928C150.499 391.145 133.818 385.266 122.293 386.341C122.293 386.341 124.348 389.247 124.348 392.006V442.423Z" fill="#C10007"/>
<path fill-rule="evenodd" clip-rule="evenodd" d="M182.04 385.434C177.623 385.434 166.959 387.244 161.812 394.7C163.116 401.247 171.895 406.287 177.359 407.17C190.505 409.275 199.365 413.219 196.11 423.719L202.931 413.219V404.408C202.928 387.523 186.461 385.434 182.04 385.434Z" fill="#C10007"/>
<path fill-rule="evenodd" clip-rule="evenodd" d="M202.926 347.829C202.926 347.829 196.601 349.296 180.394 349.296C165.121 349.296 159.937 352.262 154.014 356.979V388.251C160.524 379.582 169.08 377.028 180.394 377.028H189.707C196.981 377.028 202.926 375.774 202.926 375.774V347.829Z" fill="#C10007"/>
<path fill-rule="evenodd" clip-rule="evenodd" d="M105.092 347.829C105.092 347.829 111.417 349.297 127.639 349.297C142.89 349.297 148.081 352.263 154.019 356.979V388.251C147.475 379.582 138.953 377.028 127.639 377.028H118.329C111.034 377.028 105.089 375.774 105.089 375.774V347.829H105.092Z" fill="#C10007"/>
<path fill-rule="evenodd" clip-rule="evenodd" d="M202.925 435.984C202.925 435.984 198.853 443.88 181.877 443.88C171.109 443.88 163.55 440.951 159.789 438.394V407.106C168.19 415.231 178.317 416.136 181.877 416.136C198.225 416.136 202.925 402.515 202.925 402.515V435.984Z" fill="#C10007"/>
<path d="M264.882 399.972C279.122 401.95 307.489 413.5 307.015 443.879C292.775 441.901 264.407 430.351 264.882 399.972Z" fill="#C10007"/>
<path d="M253.004 399.972C238.764 401.95 210.396 413.5 210.871 443.879C225.111 441.901 253.478 430.351 253.004 399.972Z" fill="#C10007"/>
<path d="M264.882 391.666C279.122 389.688 307.489 378.138 307.015 347.759C292.775 349.737 264.407 361.287 264.882 391.666Z" fill="#C10007"/>
<path d="M253.004 391.666C238.764 389.688 210.396 378.138 210.871 347.759C225.111 349.737 253.478 361.287 253.004 391.666Z" fill="#C10007"/>
<circle cx="220.358" cy="396.413" r="8.3067" fill="#C10007"/>
<circle cx="298.679" cy="396.413" r="8.3067" fill="#C10007"/>
<circle cx="259.518" cy="357.252" r="8.3067" transform="rotate(90 259.518 357.252)" fill="#C10007"/>
<circle cx="259.518" cy="435.573" r="8.3067" transform="rotate(90 259.518 435.573)" fill="#C10007"/>
<path d="M368.971 399.972C383.211 401.95 411.578 413.5 411.103 443.879C396.863 441.901 368.496 430.351 368.971 399.972Z" stroke="#C10007" stroke-width="1.18667"/>
<path d="M357.093 399.972C342.853 401.95 314.485 413.5 314.96 443.879C329.2 441.901 357.567 430.351 357.093 399.972Z" stroke="#C10007" stroke-width="1.18667"/>
<path d="M368.971 391.666C383.211 389.688 411.578 378.138 411.103 347.759C396.863 349.737 368.496 361.287 368.971 391.666Z" stroke="#C10007" stroke-width="1.18667"/>
<path d="M357.093 391.665C342.853 389.688 314.485 378.137 314.96 347.759C329.2 349.736 357.567 361.287 357.093 391.665Z" stroke="#C10007" stroke-width="1.18667"/>
<circle cx="324.447" cy="396.412" r="7.71336" stroke="#C10007" stroke-width="1.18667"/>
<circle cx="402.768" cy="396.412" r="7.71336" stroke="#C10007" stroke-width="1.18667"/>
<circle cx="363.607" cy="357.252" r="7.71336" transform="rotate(90 363.607 357.252)" stroke="#C10007" stroke-width="1.18667"/>
<circle cx="363.607" cy="435.572" r="7.71336" transform="rotate(90 363.607 435.572)" stroke="#C10007" stroke-width="1.18667"/>
<path d="M55.0168 516.092C69.2568 518.07 97.6241 529.62 97.1494 559.999C82.9093 558.021 54.5421 546.471 55.0168 516.092Z" fill="#C10007"/>
<path d="M43.1385 516.093C28.8984 518.07 0.531215 529.621 1.00588 559.999C15.2459 558.022 43.6132 546.471 43.1385 516.093Z" fill="#C10007"/>
<path d="M55.0168 507.786C69.2568 505.808 97.6241 494.258 97.1494 463.879C82.9093 465.857 54.5421 477.407 55.0168 507.786Z" fill="#C10007"/>
<path d="M43.1385 507.786C28.8984 505.808 0.531215 494.258 1.00588 463.879C15.2459 465.857 43.6132 477.407 43.1385 507.786Z" fill="#C10007"/>
<circle cx="10.4937" cy="512.533" r="8.3067" fill="#C10007"/>
<circle cx="88.8135" cy="512.533" r="8.3067" fill="#C10007"/>
<circle cx="49.6538" cy="473.373" r="8.3067" transform="rotate(90 49.6538 473.373)" fill="#C10007"/>
<circle cx="49.6538" cy="551.693" r="8.3067" transform="rotate(90 49.6538 551.693)" fill="#C10007"/>
<path d="M159.107 516.093C173.347 518.07 201.714 529.621 201.239 559.999C186.999 558.022 158.632 546.471 159.107 516.093Z" fill="#C10007"/>
<path d="M147.228 516.093C132.988 518.07 104.621 529.621 105.095 560C119.335 558.022 147.703 546.471 147.228 516.093Z" fill="#C10007"/>
<path d="M159.107 507.786C173.347 505.808 201.714 494.258 201.239 463.879C186.999 465.857 158.632 477.407 159.107 507.786Z" fill="#C10007"/>
<path d="M147.228 507.786C132.988 505.808 104.621 494.258 105.095 463.879C119.335 465.857 147.703 477.407 147.228 507.786Z" fill="#C10007"/>
<circle cx="114.583" cy="512.533" r="8.3067" fill="#C10007"/>
<circle cx="192.903" cy="512.533" r="8.3067" fill="#C10007"/>
<circle cx="153.743" cy="473.372" r="8.3067" transform="rotate(90 153.743 473.372)" fill="#C10007"/>
<circle cx="153.743" cy="551.693" r="8.3067" transform="rotate(90 153.743 551.693)" fill="#C10007"/>
<path d="M263.195 516.093C277.436 518.071 305.803 529.621 305.328 560C291.088 558.022 262.721 546.471 263.195 516.093Z" fill="#C10007"/>
<path d="M251.317 516.093C237.077 518.071 208.71 529.621 209.185 560C223.425 558.022 251.792 546.472 251.317 516.093Z" fill="#C10007"/>
<path d="M263.195 507.787C277.436 505.809 305.803 494.258 305.328 463.88C291.088 465.857 262.721 477.408 263.195 507.787Z" fill="#C10007"/>
<path d="M251.317 507.786C237.077 505.808 208.71 494.258 209.185 463.879C223.425 465.857 251.792 477.407 251.317 507.786Z" fill="#C10007"/>
<circle cx="218.673" cy="512.533" r="8.3067" fill="#C10007"/>
<circle cx="296.993" cy="512.533" r="8.3067" fill="#C10007"/>
<circle cx="257.833" cy="473.373" r="8.3067" transform="rotate(90 257.833 473.373)" fill="#C10007"/>
<circle cx="257.833" cy="551.693" r="8.3067" transform="rotate(90 257.833 551.693)" fill="#C10007"/>
</g>
</svg>
