<svg width="429" height="561" viewBox="0 0 429 561" fill="none" xmlns="http://www.w3.org/2000/svg">
<g opacity="0.46">
<path d="M269.929 392.27C255.689 390.292 227.322 378.742 227.796 348.363C242.036 350.341 270.404 361.891 269.929 392.27Z" stroke="#C10007" stroke-width="1.18667"/>
<path d="M281.807 392.269C296.047 390.292 324.415 378.741 323.94 348.363C309.7 350.34 281.333 361.891 281.807 392.269Z" stroke="#C10007" stroke-width="1.18667"/>
<path d="M269.929 400.576C255.689 402.554 227.322 414.104 227.796 444.483C242.036 442.505 270.404 430.955 269.929 400.576Z" stroke="#C10007" stroke-width="1.18667"/>
<path d="M281.807 400.577C296.047 402.554 324.415 414.105 323.94 444.483C309.7 442.506 281.333 430.955 281.807 400.577Z" stroke="#C10007" stroke-width="1.18667"/>
<circle cx="314.452" cy="395.83" r="7.71336" transform="rotate(180 314.452 395.83)" stroke="#C10007" stroke-width="1.18667"/>
<circle cx="236.132" cy="395.83" r="7.71336" transform="rotate(180 236.132 395.83)" stroke="#C10007" stroke-width="1.18667"/>
<circle cx="275.292" cy="434.99" r="7.71336" transform="rotate(-90 275.292 434.99)" stroke="#C10007" stroke-width="1.18667"/>
<circle cx="275.292" cy="356.67" r="7.71336" transform="rotate(-90 275.292 356.67)" stroke="#C10007" stroke-width="1.18667"/>
<path d="M165.839 392.27C151.599 390.292 123.232 378.742 123.707 348.363C137.947 350.341 166.314 361.891 165.839 392.27Z" fill="#C10007"/>
<path d="M177.718 392.269C191.958 390.291 220.325 378.741 219.851 348.362C205.611 350.34 177.243 361.89 177.718 392.269Z" fill="#C10007"/>
<path d="M165.839 400.576C151.599 402.554 123.232 414.104 123.707 444.483C137.947 442.505 166.314 430.955 165.839 400.576Z" fill="#C10007"/>
<path d="M177.718 400.576C191.958 402.554 220.325 414.104 219.851 444.483C205.611 442.505 177.243 430.955 177.718 400.576Z" fill="#C10007"/>
<circle cx="210.363" cy="395.83" r="8.3067" transform="rotate(180 210.363 395.83)" fill="#C10007"/>
<circle cx="132.043" cy="395.829" r="8.3067" transform="rotate(180 132.043 395.829)" fill="#C10007"/>
<circle cx="171.203" cy="434.99" r="8.3067" transform="rotate(-90 171.203 434.99)" fill="#C10007"/>
<circle cx="171.203" cy="356.669" r="8.3067" transform="rotate(-90 171.203 356.669)" fill="#C10007"/>
<path d="M61.7508 392.27C47.5108 390.292 19.1435 378.742 19.6182 348.363C33.8582 350.341 62.2255 361.891 61.7508 392.27Z" fill="#C10007"/>
<path d="M73.6286 392.27C87.8686 390.292 116.236 378.742 115.761 348.363C101.521 350.341 73.1539 361.891 73.6286 392.27Z" fill="#C10007"/>
<path d="M61.7508 400.577C47.5108 402.554 19.1435 414.105 19.6182 444.483C33.8582 442.506 62.2255 430.955 61.7508 400.577Z" fill="#C10007"/>
<path d="M73.6286 400.577C87.8686 402.555 116.236 414.105 115.761 444.484C101.521 442.506 73.1539 430.956 73.6286 400.577Z" fill="#C10007"/>
<circle cx="106.274" cy="395.83" r="8.3067" transform="rotate(180 106.274 395.83)" fill="#C10007"/>
<circle cx="27.9536" cy="395.83" r="8.3067" transform="rotate(180 27.9536 395.83)" fill="#C10007"/>
<circle cx="67.1138" cy="434.99" r="8.3067" transform="rotate(-90 67.1138 434.99)" fill="#C10007"/>
<circle cx="67.1138" cy="356.67" r="8.3067" transform="rotate(-90 67.1138 356.67)" fill="#C10007"/>
<path d="M269.929 276.149C255.689 274.171 227.322 262.621 227.796 232.242C242.036 234.22 270.404 245.77 269.929 276.149Z" stroke="#C10007" stroke-width="1.18667"/>
<path d="M281.807 276.148C296.047 274.171 324.415 262.62 323.94 232.242C309.7 234.219 281.333 245.77 281.807 276.148Z" stroke="#C10007" stroke-width="1.18667"/>
<path d="M269.929 284.455C255.689 286.433 227.322 297.983 227.796 328.362C242.036 326.384 270.404 314.834 269.929 284.455Z" stroke="#C10007" stroke-width="1.18667"/>
<path d="M281.807 284.456C296.047 286.433 324.415 297.984 323.94 328.362C309.7 326.385 281.333 314.834 281.807 284.456Z" stroke="#C10007" stroke-width="1.18667"/>
<circle cx="314.452" cy="279.709" r="7.71336" transform="rotate(180 314.452 279.709)" stroke="#C10007" stroke-width="1.18667"/>
<circle cx="236.132" cy="279.709" r="7.71336" transform="rotate(180 236.132 279.709)" stroke="#C10007" stroke-width="1.18667"/>
<circle cx="275.293" cy="318.869" r="7.71336" transform="rotate(-90 275.293 318.869)" stroke="#C10007" stroke-width="1.18667"/>
<circle cx="275.293" cy="240.549" r="7.71336" transform="rotate(-90 275.293 240.549)" stroke="#C10007" stroke-width="1.18667"/>
<path fill-rule="evenodd" clip-rule="evenodd" d="M200.597 233.698H174.447V270.193C174.447 284.976 191.127 290.855 202.652 289.78C202.652 289.78 200.597 286.874 200.597 284.115V233.698Z" fill="#C10007"/>
<path fill-rule="evenodd" clip-rule="evenodd" d="M142.905 290.687C147.323 290.687 157.987 288.877 163.133 281.421C161.829 274.873 153.051 269.834 147.587 268.951C134.44 266.845 125.58 262.902 128.835 252.402L122.014 262.902V271.712C122.017 288.598 138.484 290.687 142.905 290.687Z" fill="#C10007"/>
<path fill-rule="evenodd" clip-rule="evenodd" d="M122.019 328.292C122.019 328.292 128.344 326.825 144.55 326.825C159.824 326.825 165.008 323.859 170.931 319.143V287.87C164.42 296.539 155.865 299.093 144.55 299.093H135.237C127.964 299.093 122.019 300.347 122.019 300.347V328.292Z" fill="#C10007"/>
<path fill-rule="evenodd" clip-rule="evenodd" d="M219.853 328.292C219.853 328.292 213.528 326.825 197.306 326.825C182.055 326.825 176.864 323.859 170.926 319.143V287.87C177.471 296.539 185.992 299.093 197.306 299.093H206.616C213.912 299.093 219.856 300.347 219.856 300.347V328.292H219.853Z" fill="#C10007"/>
<path fill-rule="evenodd" clip-rule="evenodd" d="M122.02 240.137C122.02 240.137 126.092 232.242 143.068 232.242C153.836 232.242 161.395 235.17 165.156 237.727V269.016C156.755 260.89 146.628 259.985 143.068 259.985C126.72 259.985 122.02 273.606 122.02 273.606V240.137Z" fill="#C10007"/>
<path d="M60.0633 276.148C45.8233 274.171 17.456 262.62 17.9307 232.242C32.1707 234.219 60.538 245.77 60.0633 276.148Z" fill="#C10007"/>
<path d="M71.9416 276.148C86.1816 274.17 114.549 262.62 114.074 232.241C99.8341 234.219 71.4669 245.769 71.9416 276.148Z" fill="#C10007"/>
<path d="M60.0633 284.455C45.8233 286.433 17.456 297.983 17.9307 328.362C32.1707 326.384 60.538 314.834 60.0633 284.455Z" fill="#C10007"/>
<path d="M71.9416 284.455C86.1816 286.433 114.549 297.983 114.074 328.362C99.8341 326.384 71.4669 314.834 71.9416 284.455Z" fill="#C10007"/>
<circle cx="104.586" cy="279.709" r="8.3067" transform="rotate(180 104.586 279.709)" fill="#C10007"/>
<circle cx="26.2665" cy="279.709" r="8.3067" transform="rotate(180 26.2665 279.709)" fill="#C10007"/>
<circle cx="65.4263" cy="318.869" r="8.3067" transform="rotate(-90 65.4263 318.869)" fill="#C10007"/>
<circle cx="65.4263" cy="240.549" r="8.3067" transform="rotate(-90 65.4263 240.549)" fill="#C10007"/>
<path d="M373.983 160.028C359.743 158.05 331.376 146.5 331.851 116.121C346.091 118.099 374.458 129.649 373.983 160.028Z" stroke="#C10007" stroke-width="1.18667"/>
<path d="M385.861 160.027C400.102 158.05 428.469 146.499 427.994 116.121C413.754 118.098 385.387 129.649 385.861 160.027Z" stroke="#C10007" stroke-width="1.18667"/>
<path d="M373.983 168.335C359.743 170.312 331.376 181.863 331.851 212.241C346.091 210.264 374.458 198.713 373.983 168.335Z" stroke="#C10007" stroke-width="1.18667"/>
<path d="M385.861 168.335C400.102 170.313 428.469 181.863 427.994 212.242C413.754 210.264 385.387 198.714 385.861 168.335Z" stroke="#C10007" stroke-width="1.18667"/>
<circle cx="418.507" cy="163.588" r="7.71336" transform="rotate(180 418.507 163.588)" stroke="#C10007" stroke-width="1.18667"/>
<circle cx="340.186" cy="163.588" r="7.71336" transform="rotate(180 340.186 163.588)" stroke="#C10007" stroke-width="1.18667"/>
<circle cx="379.346" cy="202.748" r="7.71336" transform="rotate(-90 379.346 202.748)" stroke="#C10007" stroke-width="1.18667"/>
<circle cx="379.346" cy="124.428" r="7.71336" transform="rotate(-90 379.346 124.428)" stroke="#C10007" stroke-width="1.18667"/>
<path fill-rule="evenodd" clip-rule="evenodd" d="M304.652 117.577H278.501V154.072C278.501 168.855 295.182 174.734 306.707 173.659C306.707 173.659 304.652 170.753 304.652 167.994V117.577Z" fill="#C10007"/>
<path fill-rule="evenodd" clip-rule="evenodd" d="M246.96 174.566C251.377 174.566 262.041 172.757 267.188 165.301C265.884 158.753 257.105 153.713 251.641 152.83C238.495 150.725 229.635 146.782 232.89 136.281L226.069 146.782V155.592C226.072 172.477 242.539 174.566 246.96 174.566Z" fill="#C10007"/>
<path fill-rule="evenodd" clip-rule="evenodd" d="M226.074 212.171C226.074 212.171 232.399 210.704 248.606 210.704C263.879 210.704 269.063 207.738 274.986 203.021V171.749C268.476 180.418 259.92 182.972 248.606 182.972H239.293C232.019 182.972 226.074 184.226 226.074 184.226V212.171Z" fill="#C10007"/>
<path fill-rule="evenodd" clip-rule="evenodd" d="M323.908 212.171C323.908 212.171 317.583 210.704 301.361 210.704C286.11 210.704 280.919 207.737 274.981 203.021V171.749C281.525 180.418 290.047 182.972 301.361 182.972H310.671C317.966 182.972 323.911 184.226 323.911 184.226V212.171H323.908Z" fill="#C10007"/>
<path fill-rule="evenodd" clip-rule="evenodd" d="M226.075 124.016C226.075 124.016 230.147 116.12 247.123 116.12C257.891 116.12 265.45 119.049 269.211 121.606V152.895C260.81 144.769 250.683 143.864 247.123 143.864C230.775 143.864 226.075 157.485 226.075 157.485V124.016Z" fill="#C10007"/>
<path d="M164.118 160.028C149.878 158.05 121.511 146.5 121.985 116.121C136.225 118.099 164.593 129.65 164.118 160.028Z" fill="#C10007"/>
<path d="M175.996 160.028C190.236 158.05 218.604 146.5 218.129 116.121C203.889 118.099 175.522 129.649 175.996 160.028Z" fill="#C10007"/>
<path d="M164.118 168.334C149.878 170.312 121.511 181.862 121.985 212.241C136.225 210.263 164.593 198.713 164.118 168.334Z" fill="#C10007"/>
<path d="M175.996 168.335C190.236 170.313 218.604 181.863 218.129 212.242C203.889 210.264 175.522 198.714 175.996 168.335Z" fill="#C10007"/>
<circle cx="208.641" cy="163.588" r="8.3067" transform="rotate(180 208.641 163.588)" fill="#C10007"/>
<circle cx="130.321" cy="163.588" r="8.3067" transform="rotate(180 130.321 163.588)" fill="#C10007"/>
<circle cx="169.482" cy="202.748" r="8.3067" transform="rotate(-90 169.482 202.748)" fill="#C10007"/>
<circle cx="169.482" cy="124.428" r="8.3067" transform="rotate(-90 169.482 124.428)" fill="#C10007"/>
<path d="M60.0286 160.028C45.7886 158.05 17.4214 146.5 17.896 116.121C32.1361 118.099 60.5033 129.649 60.0286 160.028Z" stroke="#C10007" stroke-width="1.18667"/>
<path d="M71.9069 160.028C86.147 158.05 114.514 146.5 114.04 116.121C99.7995 118.099 71.4322 129.649 71.9069 160.028Z" stroke="#C10007" stroke-width="1.18667"/>
<path d="M60.0286 168.334C45.7886 170.312 17.4214 181.862 17.896 212.241C32.1361 210.263 60.5033 198.713 60.0286 168.334Z" stroke="#C10007" stroke-width="1.18667"/>
<path d="M71.9069 168.335C86.147 170.312 114.514 181.863 114.04 212.241C99.7995 210.264 71.4322 198.713 71.9069 168.335Z" stroke="#C10007" stroke-width="1.18667"/>
<circle cx="104.552" cy="163.588" r="7.71336" transform="rotate(180 104.552 163.588)" stroke="#C10007" stroke-width="1.18667"/>
<circle cx="26.2319" cy="163.588" r="7.71336" transform="rotate(180 26.2319 163.588)" stroke="#C10007" stroke-width="1.18667"/>
<circle cx="65.3917" cy="202.748" r="7.71336" transform="rotate(-90 65.3917 202.748)" stroke="#C10007" stroke-width="1.18667"/>
<circle cx="65.3917" cy="124.428" r="7.71336" transform="rotate(-90 65.3917 124.428)" stroke="#C10007" stroke-width="1.18667"/>
<path d="M373.983 43.9076C359.743 41.9298 331.376 30.3796 331.851 0.000793457C346.091 1.97858 374.458 13.5288 373.983 43.9076Z" fill="#C10007"/>
<path d="M385.861 43.9075C400.102 41.9297 428.469 30.3794 427.994 0.000671387C413.754 1.97846 385.387 13.5287 385.861 43.9075Z" fill="#C10007"/>
<path d="M373.983 52.2138C359.743 54.1916 331.376 65.7418 331.851 96.1206C346.091 94.1428 374.458 82.5926 373.983 52.2138Z" fill="#C10007"/>
<path d="M385.861 52.2141C400.102 54.1919 428.469 65.7422 427.994 96.121C413.754 94.1432 385.387 82.5929 385.861 52.2141Z" fill="#C10007"/>
<circle cx="418.506" cy="47.4674" r="8.3067" transform="rotate(180 418.506 47.4674)" fill="#C10007"/>
<circle cx="340.186" cy="47.4674" r="8.3067" transform="rotate(180 340.186 47.4674)" fill="#C10007"/>
<circle cx="379.346" cy="86.6275" r="8.3067" transform="rotate(-90 379.346 86.6275)" fill="#C10007"/>
<circle cx="379.346" cy="8.30726" r="8.3067" transform="rotate(-90 379.346 8.30726)" fill="#C10007"/>
<path d="M269.894 43.9068C255.654 41.929 227.287 30.3788 227.761 0C242.001 1.97779 270.369 13.528 269.894 43.9068Z" fill="#C10007"/>
<path d="M281.772 43.9067C296.012 41.9289 324.379 30.3787 323.905 -0.00012207C309.665 1.97766 281.297 13.5279 281.772 43.9067Z" fill="#C10007"/>
<path d="M269.894 52.2131C255.654 54.1909 227.287 65.7412 227.761 96.1199C242.001 94.1421 270.369 82.5919 269.894 52.2131Z" fill="#C10007"/>
<path d="M281.772 52.2135C296.012 54.1913 324.379 65.7415 323.905 96.1203C309.665 94.1425 281.297 82.5923 281.772 52.2135Z" fill="#C10007"/>
<circle cx="314.417" cy="47.4667" r="8.3067" transform="rotate(180 314.417 47.4667)" fill="#C10007"/>
<circle cx="236.097" cy="47.4667" r="8.3067" transform="rotate(180 236.097 47.4667)" fill="#C10007"/>
<circle cx="275.257" cy="86.6269" r="8.3067" transform="rotate(-90 275.257 86.6269)" fill="#C10007"/>
<circle cx="275.257" cy="8.30658" r="8.3067" transform="rotate(-90 275.257 8.30658)" fill="#C10007"/>
<path d="M165.805 43.9069C151.564 41.9291 123.197 30.3788 123.672 6.10352e-05C137.912 1.97785 166.279 13.5281 165.805 43.9069Z" fill="#C10007"/>
<path d="M177.683 43.9068C191.923 41.929 220.291 30.3787 219.816 -6.10352e-05C205.576 1.97773 177.209 13.528 177.683 43.9068Z" fill="#C10007"/>
<path d="M165.805 52.2131C151.564 54.1909 123.197 65.7412 123.672 96.1199C137.912 94.1421 166.279 82.5919 165.805 52.2131Z" fill="#C10007"/>
<path d="M177.683 52.2135C191.923 54.1913 220.291 65.7415 219.816 96.1203C205.576 94.1425 177.209 82.5923 177.683 52.2135Z" fill="#C10007"/>
<circle cx="210.328" cy="47.4667" r="8.3067" transform="rotate(180 210.328 47.4667)" fill="#C10007"/>
<circle cx="132.008" cy="47.4667" r="8.3067" transform="rotate(180 132.008 47.4667)" fill="#C10007"/>
<circle cx="171.168" cy="86.6268" r="8.3067" transform="rotate(-90 171.168 86.6268)" fill="#C10007"/>
<circle cx="171.168" cy="8.30665" r="8.3067" transform="rotate(-90 171.168 8.30665)" fill="#C10007"/>
</g>
</svg>
