<svg width="121" height="33" viewBox="0 0 121 33" fill="none" xmlns="http://www.w3.org/2000/svg">
<path fill-rule="evenodd" clip-rule="evenodd" d="M47.0473 18.7391H46.5405H46.2091H45.569C45.2916 18.7391 44.8074 18.845 44.627 19.3851C44.5692 19.5606 43.5212 23.1689 42.7351 25.8431C41.9812 23.5826 40.7412 19.7645 40.6579 19.5076C40.4491 18.8744 39.9982 18.7371 39.7051 18.7371H38.1945H38.1925H38.1111C37.7082 18.7371 37.3867 19.0587 37.3867 19.4586V29.1574C37.3867 29.5593 37.7082 29.8818 38.1111 29.8818H38.516C38.9042 29.8681 39.2149 29.5485 39.2149 29.1574V21.5799C40.1648 24.5629 41.6411 29.4162 41.6411 29.4162C41.7891 29.7926 42.0969 29.8828 42.3194 29.8828L42.3214 29.8799H42.5459C42.6802 29.8799 43.0056 29.8632 43.186 29.5936C43.2389 29.5221 44.6201 24.6531 45.4896 21.6476V29.1584C45.4896 29.5603 45.8092 29.8828 46.2091 29.8828H47.0483C47.4364 29.8691 47.7511 29.5495 47.7511 29.1584V19.4596C47.7501 19.0665 47.4355 18.7519 47.0473 18.7391Z" fill="white"/>
<path fill-rule="evenodd" clip-rule="evenodd" d="M53.7897 28.135H52.2771C51.9164 28.135 51.6243 27.839 51.6243 27.4782V27.0763C51.6243 26.7136 51.9164 26.4244 52.2771 26.4244H54.4465V27.4772C54.4465 27.8399 54.1485 28.135 53.7897 28.135ZM54.3279 21.475H50.3872C49.9961 21.4888 49.6843 21.8132 49.6843 22.2063V22.5073C49.6843 22.9004 49.9961 23.2082 50.3872 23.2219H53.7897C54.1485 23.2219 54.4465 23.5179 54.4465 23.8767V24.7374H51.7419C50.4274 24.7374 49.3589 25.8078 49.3589 27.1194V27.4988C49.3589 28.8104 50.4274 29.8809 51.7419 29.8809H54.3279C55.6444 29.8809 56.7129 28.8104 56.7129 27.4988V23.8551C56.7129 22.5406 55.6444 21.475 54.3279 21.475Z" fill="white"/>
<path fill-rule="evenodd" clip-rule="evenodd" d="M67.1183 28.135H65.6009C65.2401 28.135 64.9461 27.839 64.9461 27.4782V27.0763C64.9461 26.7136 65.2401 26.4244 65.6009 26.4244H67.7702V27.4772C67.7692 27.8399 67.4771 28.135 67.1183 28.135ZM67.6506 21.475H63.7109C63.3227 21.4888 63.01 21.8132 63.01 22.2063V22.5073C63.01 22.9004 63.3227 23.2082 63.7109 23.2219H67.1183C67.4771 23.2219 67.7702 23.5179 67.7702 23.8767V24.7374H65.0656C63.7521 24.7374 62.6836 25.8078 62.6836 27.1194V27.4988C62.6836 28.8104 63.7521 29.8809 65.0656 29.8809H67.6516C68.9681 29.8809 70.0386 28.8104 70.0386 27.4988V23.8551C70.0376 22.5406 68.9671 21.475 67.6506 21.475Z" fill="white"/>
<path fill-rule="evenodd" clip-rule="evenodd" d="M83.426 27.4763V23.8768C83.426 23.5161 83.7221 23.22 84.0809 23.22H86.26V28.1312H84.0809C83.7221 28.1312 83.426 27.8351 83.426 27.4763ZM87.8186 21.4859H83.5456C82.2272 21.4859 81.1606 22.5436 81.1606 23.8591V27.4303C81.1606 28.7448 82.2272 29.8084 83.5456 29.8084H86.2571V30.2201C86.2571 30.5838 85.961 30.8789 85.6003 30.8789H82.1958C81.8066 30.8906 81.4949 31.2072 81.4949 31.5984V31.8483C81.4949 32.2444 81.8066 32.5581 82.1958 32.5698H86.1375C87.451 32.5698 88.5225 31.4994 88.5225 30.1878V22.2094C88.5225 21.8172 88.2078 21.4996 87.8186 21.4859Z" fill="white"/>
<path fill-rule="evenodd" clip-rule="evenodd" d="M60.1866 18.7381H59.3514C58.9495 18.7381 58.625 19.0567 58.625 19.4596V29.1584C58.625 29.5603 58.9495 29.8828 59.3514 29.8828H60.1866C60.5757 29.8691 60.8875 29.5476 60.8875 29.1584V19.4596C60.8875 19.0665 60.5757 18.7519 60.1866 18.7381Z" fill="white"/>
<path fill-rule="evenodd" clip-rule="evenodd" d="M76.7066 21.4755H75.7724C74.849 21.4755 74.2569 21.9108 74.1364 22.0049C74.055 21.7088 73.7874 21.4893 73.4649 21.4794L72.6297 21.4765C72.2278 21.4765 71.9053 21.798 71.9053 22.2009V29.1589C71.9053 29.5608 72.2288 29.8823 72.6297 29.8823H73.4649C73.856 29.8706 74.1658 29.551 74.1658 29.1589V23.7272C74.3158 23.5959 74.8137 23.2273 75.7479 23.2273C76.3037 23.2273 76.8723 23.6733 76.8772 24.2262V29.1599C76.8772 29.5618 77.2007 29.8833 77.6006 29.8833H78.4398C78.8279 29.8715 79.1406 29.552 79.1406 29.1599V23.9135C79.1397 22.5656 78.0496 21.4755 76.7066 21.4755Z" fill="white"/>
<path d="M67.6734 14.915C67.5371 14.7434 63.7043 9.56662 63.7043 9.56662C63.7043 9.56662 67.2754 5.4093 67.2695 5.41714C67.3479 5.33382 67.395 5.22501 67.395 5.09855C67.395 4.84466 67.1862 4.63881 66.9323 4.63881H65.857C65.6413 4.63881 65.4482 4.73585 65.3178 4.88387L61.6418 9.21667V5.36028C61.6398 4.96916 61.3291 4.65645 60.9438 4.64273V4.63979H60.1136V4.64273C59.7156 4.64273 59.396 4.96132 59.396 5.36028V14.9856C59.396 15.3806 59.7156 15.707 60.1136 15.707H60.9438C61.3281 15.6904 61.6418 15.3757 61.6418 14.9856V10.4724C61.6418 10.4724 65.2453 15.3237 65.3354 15.4414C65.4697 15.6168 65.6825 15.707 65.8834 15.707H67.345C67.5999 15.707 67.8077 15.4982 67.8077 15.2424C67.8077 15.1512 67.793 15.064 67.6734 14.915Z" fill="white"/>
<path fill-rule="evenodd" clip-rule="evenodd" d="M56.6163 4.64273H56.1125H55.7841H55.1459C54.8724 4.64273 54.3872 4.74468 54.2117 5.28088C54.1559 5.45929 53.1129 9.04218 52.3316 11.6958C51.5846 9.45389 50.3544 5.66025 50.2711 5.4044C50.0652 4.778 49.6182 4.63881 49.3231 4.63881H47.8282H47.8263H47.7449C47.3469 4.63881 47.0254 4.96033 47.0254 5.35636V14.9856C47.0254 15.3806 47.3469 15.707 47.7449 15.707H48.1468C48.535 15.6933 48.8448 15.3767 48.8448 14.9856V7.46296C49.7839 10.4263 51.2523 15.2424 51.2523 15.2424C51.3984 15.6168 51.7052 15.707 51.9238 15.707H51.9258H52.1483C52.2796 15.707 52.6021 15.6835 52.7845 15.4198C52.8335 15.3483 54.2068 10.5136 55.0675 7.52962V14.9856C55.0675 15.3806 55.391 15.707 55.7851 15.707H56.6173C57.0036 15.6933 57.3153 15.3767 57.3153 14.9856V5.35636C57.3123 4.97112 57.0026 4.65645 56.6163 4.64273Z" fill="white"/>
<path fill-rule="evenodd" clip-rule="evenodd" d="M42.8135 9.01913H40.4912C39.9403 9.01913 39.4923 8.57311 39.4923 8.01926V7.3762C39.4923 6.83019 39.9393 6.38123 40.4912 6.38123H43.8751C44.2594 6.3724 44.5711 6.04597 44.5711 5.65681V5.35881C44.5711 4.97062 44.2594 4.65497 43.8751 4.64125H39.8011C38.4689 4.64125 37.3867 5.72445 37.3867 7.06055V8.85543C37.3867 10.1876 38.4689 11.2698 39.8011 11.2698H42.1263C42.6763 11.2698 43.1233 11.7188 43.1233 12.2687V12.9716C43.1233 13.5225 42.6763 13.9715 42.1263 13.9715H38.4072C38.0229 13.9813 37.7092 14.3028 37.7092 14.6929V14.9919C37.7092 15.3781 38.0219 15.6928 38.4072 15.7095H42.8135C44.1476 15.7095 45.2308 14.6263 45.2308 13.2902V11.4355C45.2308 10.1023 44.1467 9.01913 42.8135 9.01913Z" fill="white"/>
<path fill-rule="evenodd" clip-rule="evenodd" d="M105.679 13.3685C105.679 13.7204 105.388 14.0135 105.027 14.0135H103.535C103.172 14.0135 102.883 13.7214 102.883 13.3685V9.80616C102.883 9.44346 103.172 9.1582 103.535 9.1582H105.027C105.388 9.1582 105.679 9.44444 105.679 9.80616V13.3685ZM105.563 7.42803H103.003C101.701 7.42803 100.645 8.48084 100.645 9.78459V13.389C100.645 14.684 101.702 15.7437 103.003 15.7437H105.563C106.861 15.7437 107.921 14.684 107.921 13.389V9.78459C107.921 8.48084 106.861 7.42803 105.563 7.42803Z" fill="white"/>
<path fill-rule="evenodd" clip-rule="evenodd" d="M79.3581 4.71611H76.2379H76.1428H72.2619C71.8806 4.72983 71.5728 5.0494 71.5698 5.43759V5.73853C71.5728 6.12476 71.8815 6.44138 72.2619 6.44824H74.689V15.0276C74.689 15.4207 75.0106 15.7441 75.4066 15.7441L76.2369 15.7392C76.6182 15.7304 76.928 15.4177 76.928 15.0285V6.44923H79.3571C79.7394 6.44236 80.0482 6.11887 80.0482 5.72775V5.42876C80.0492 5.0445 79.7413 4.72983 79.3581 4.71611Z" fill="white"/>
<path fill-rule="evenodd" clip-rule="evenodd" d="M89.7251 4.71905L88.8967 4.71611C88.5007 4.71611 88.1821 5.04058 88.1821 5.43367V15.0266C88.1821 15.4197 88.5007 15.7432 88.8967 15.7432H89.7251C90.1113 15.7294 90.4191 15.4128 90.4191 15.0266V5.43367C90.4191 5.04744 90.1113 4.73278 89.7251 4.71905Z" fill="white"/>
<path fill-rule="evenodd" clip-rule="evenodd" d="M117.762 7.42753H116.966C115.939 7.42753 115.243 7.96864 115.24 7.97158C114.825 7.62947 114.296 7.42753 113.717 7.42753H112.916C112.496 7.42753 112.135 7.51772 111.852 7.62653C111.729 7.51086 111.565 7.43734 111.38 7.43244L110.555 7.42753C110.159 7.42753 109.838 7.7471 109.838 8.14509V15.0266C109.838 15.4197 110.158 15.7441 110.555 15.7441H111.38C111.767 15.7285 112.079 15.4128 112.079 15.0266V9.29495C112.32 9.21457 112.602 9.15869 112.893 9.15869C113.441 9.15869 113.883 9.60079 113.886 10.1419V15.0256C113.886 15.4187 114.205 15.7432 114.602 15.7432H115.426C115.815 15.7275 116.124 15.4118 116.124 15.0256V10.1145V9.97133V9.83508C116.124 9.65667 116.101 9.47924 116.066 9.31063C116.327 9.22535 116.628 9.15771 116.94 9.15771C117.488 9.15771 117.929 9.59981 117.933 10.1409V15.0246C117.933 15.4177 118.255 15.7422 118.65 15.7422H119.48C119.863 15.7265 120.171 15.4108 120.171 15.0246V10.1135V9.97035V9.8341C120.169 8.50387 119.09 7.42753 117.762 7.42753Z" fill="white"/>
<path fill-rule="evenodd" clip-rule="evenodd" d="M96.7608 11.1153C96.7608 11.1153 98.8409 8.73717 99.5389 8.0451C99.7732 7.81082 99.5712 7.44126 99.3056 7.44126H97.894C97.6528 7.44126 97.4342 7.53634 97.2833 7.71377C97.2372 7.76475 94.5934 10.8438 94.5934 10.8438V5.43367C94.5934 5.0494 94.2837 4.73277 93.8994 4.71905L93.0711 4.71611C92.676 4.71611 92.3564 5.03568 92.3564 5.43367V15.0266C92.3564 15.4197 92.676 15.7441 93.0711 15.7441H93.8994C94.2837 15.7285 94.5934 15.4128 94.5934 15.0266V11.6309C94.5934 11.6309 96.6706 14.6051 97.1755 15.2834C97.4186 15.6079 97.643 15.7441 97.8214 15.7441H99.3987C99.7457 15.7441 100.044 15.4246 99.7732 15.0756C99.3026 14.46 96.7608 11.1153 96.7608 11.1153Z" fill="white"/>
<path fill-rule="evenodd" clip-rule="evenodd" d="M84.3906 10.2135C84.3906 10.5703 84.1014 10.8634 83.7446 10.8634H81.6008V9.81743C81.6008 9.4616 81.8919 9.16556 82.2438 9.16556H83.7446C84.1014 9.16556 84.3906 9.4616 84.3906 9.81743V10.2135ZM84.272 7.44224H81.7164C80.4146 7.44224 79.3589 8.49701 79.3589 9.79293V13.3974C79.3589 14.6953 80.4156 15.7432 81.7164 15.7432H85.614C85.9983 15.7275 86.3051 15.4167 86.3051 15.0325V14.7296C86.3051 14.3433 85.9992 14.0169 85.614 14.0081H82.2438C81.8919 14.0081 81.6008 13.7326 81.6008 13.3768V12.5191H84.272C85.5738 12.5191 86.6295 11.4643 86.6295 10.1664V9.79195C86.6295 8.49701 85.5728 7.44224 84.272 7.44224Z" fill="white"/>
<path fill-rule="evenodd" clip-rule="evenodd" d="M6.00975 29.9512H14.1685V18.5653C14.1685 13.9532 8.96428 12.1191 5.36865 12.4543C5.36865 12.4543 6.00975 13.3611 6.00975 14.2218V29.9512Z" fill="#525257"/>
<path fill-rule="evenodd" clip-rule="evenodd" d="M24.0082 12.1716C22.63 12.1716 19.3029 12.7363 17.6973 15.0624C18.1041 17.1053 20.843 18.6777 22.5476 18.9531C26.6491 19.6099 29.4134 20.8401 28.3979 24.1162L30.5261 20.8401V18.0915C30.5251 12.8235 25.3875 12.1716 24.0082 12.1716Z" fill="#525257"/>
<path fill-rule="evenodd" clip-rule="evenodd" d="M30.5255 0.439613C30.5255 0.439613 28.5522 0.897398 23.496 0.897398C18.7309 0.897398 17.1134 1.82277 15.2656 3.29416V13.0508C17.2967 10.3462 19.966 9.54926 23.496 9.54926H26.4015C28.6708 9.54926 30.5255 9.15813 30.5255 9.15813V0.439613Z" fill="#AE2025"/>
<path fill-rule="evenodd" clip-rule="evenodd" d="M0.000981227 0.439613C0.000981227 0.439613 1.97426 0.897398 7.0354 0.897398C11.7936 0.897398 13.413 1.82277 15.2657 3.29416V13.0508C13.2238 10.3462 10.5653 9.54926 7.0354 9.54926H4.13086C1.85467 9.54926 0 9.15813 0 9.15813V0.439613H0.000981227Z" fill="#E8212A"/>
<path fill-rule="evenodd" clip-rule="evenodd" d="M30.5245 27.9423C30.5245 27.9423 29.2541 30.4058 23.9577 30.4058C20.5983 30.4058 18.2398 29.4921 17.0664 28.6942V18.9327C19.6876 21.4677 22.8471 21.75 23.9577 21.75C29.058 21.75 30.5245 17.5005 30.5245 17.5005V27.9423Z" fill="#7A7E81"/>
<path fill-rule="evenodd" clip-rule="evenodd" d="M6.00975 29.9512H14.1685V18.5653C14.1685 13.9532 8.96428 12.1191 5.36865 12.4543C5.36865 12.4543 6.00975 13.3611 6.00975 14.2218V29.9512Z" fill="white"/>
<path fill-rule="evenodd" clip-rule="evenodd" d="M24.0082 12.1716C22.63 12.1716 19.3029 12.7363 17.6973 15.0624C18.1041 17.1053 20.843 18.6777 22.5476 18.9531C26.6491 19.6099 29.4134 20.8401 28.3979 24.1162L30.5261 20.8401V18.0915C30.5251 12.8235 25.3875 12.1716 24.0082 12.1716Z" fill="white"/>
<path fill-rule="evenodd" clip-rule="evenodd" d="M30.5255 0.439613C30.5255 0.439613 28.5522 0.897398 23.496 0.897398C18.7309 0.897398 17.1134 1.82277 15.2656 3.29416V13.0508C17.2967 10.3462 19.966 9.54926 23.496 9.54926H26.4015C28.6708 9.54926 30.5255 9.15813 30.5255 9.15813V0.439613Z" fill="white"/>
<path fill-rule="evenodd" clip-rule="evenodd" d="M0.000981227 0.439613C0.000981227 0.439613 1.97426 0.897398 7.0354 0.897398C11.7936 0.897398 13.413 1.82277 15.2657 3.29416V13.0508C13.2238 10.3462 10.5653 9.54926 7.0354 9.54926H4.13086C1.85467 9.54926 0 9.15813 0 9.15813V0.439613H0.000981227Z" fill="white"/>
<path fill-rule="evenodd" clip-rule="evenodd" d="M30.5245 27.9423C30.5245 27.9423 29.2541 30.4058 23.9577 30.4058C20.5983 30.4058 18.2398 29.4921 17.0664 28.6942V18.9327C19.6876 21.4677 22.8471 21.75 23.9577 21.75C29.058 21.75 30.5245 17.5005 30.5245 17.5005V27.9423Z" fill="white"/>
</svg>
