<svg width="24" height="25" viewBox="0 0 24 25" fill="none" xmlns="http://www.w3.org/2000/svg">
<path d="M21.9798 11.8494C21.6398 6.0494 16.3698 1.57941 10.2998 2.57941C6.1198 3.26941 2.7698 6.65939 2.1198 10.8394C1.7398 13.2594 2.23983 15.5494 3.32983 17.4394L2.43981 20.7494C2.23981 21.4994 2.92979 22.1794 3.66979 21.9694L6.9298 21.0694C8.4098 21.9394 10.1398 22.4394 11.9898 22.4394C17.6298 22.4394 22.3098 17.4694 21.9798 11.8494ZM16.8798 16.1594C16.7898 16.3394 16.6798 16.5094 16.5398 16.6694C16.2898 16.9394 16.0198 17.1394 15.7198 17.2594C15.4198 17.3894 15.0898 17.4494 14.7398 17.4494C14.2298 17.4494 13.6798 17.3294 13.1098 17.0794C12.5298 16.8294 11.9598 16.4994 11.3898 16.0894C10.8098 15.6694 10.2698 15.1994 9.74981 14.6894C9.22981 14.1694 8.76978 13.6194 8.34978 13.0494C7.93979 12.4794 7.6098 11.9094 7.3698 11.3394C7.1298 10.7694 7.00982 10.2194 7.00982 9.69941C7.00982 9.35941 7.06981 9.02941 7.18981 8.72941C7.30981 8.41941 7.49983 8.13941 7.76983 7.88941C8.08983 7.56941 8.43981 7.41941 8.80981 7.41941C8.94981 7.41941 9.08978 7.44941 9.21978 7.50941C9.34978 7.56941 9.46981 7.65941 9.55981 7.78941L10.7198 9.42939C10.8098 9.55939 10.8798 9.6694 10.9198 9.7794C10.9698 9.8894 10.9898 9.98939 10.9898 10.0894C10.9898 10.2094 10.9498 10.3294 10.8798 10.4494C10.8098 10.5694 10.7198 10.6894 10.5998 10.8094L10.2198 11.2094C10.1598 11.2694 10.1398 11.3294 10.1398 11.4094C10.1398 11.4494 10.1498 11.4894 10.1598 11.5294C10.1798 11.5694 10.1898 11.5994 10.1998 11.6294C10.2898 11.7994 10.4498 12.0094 10.6698 12.2694C10.8998 12.5294 11.1398 12.7994 11.3998 13.0594C11.6698 13.3294 11.9298 13.5694 12.1998 13.7994C12.4598 14.0194 12.6798 14.1694 12.8498 14.2594C12.8798 14.2694 12.9098 14.2894 12.9398 14.2994C12.9798 14.3194 13.0198 14.3194 13.0698 14.3194C13.1598 14.3194 13.2198 14.2894 13.2798 14.2294L13.6598 13.8494C13.7898 13.7194 13.9098 13.6294 14.0198 13.5694C14.1398 13.4994 14.2498 13.4594 14.3798 13.4594C14.4798 13.4594 14.5798 13.4794 14.6898 13.5294C14.7998 13.5794 14.9198 13.6394 15.0398 13.7294L16.6998 14.9094C16.8298 14.9994 16.9198 15.1094 16.9798 15.2294C17.0298 15.3594 17.0598 15.4794 17.0598 15.6194C16.9998 15.7894 16.9598 15.9794 16.8798 16.1594Z" fill="white"/>
</svg>
